<?xml version="1.0" encoding="UTF-8" standalone="no"?>
<svg
   ffdec:objectType="frame"
   height="460.7px"
   width="583.35px"
   version="1.1"
   id="svg17"
   sodipodi:docname="47.svg"
   inkscape:version="1.1.2 (0a00cf5339, 2022-02-04)"
   xmlns:inkscape="http://www.inkscape.org/namespaces/inkscape"
   xmlns:sodipodi="http://sodipodi.sourceforge.net/DTD/sodipodi-0.dtd"
   xmlns="http://www.w3.org/2000/svg"
   xmlns:svg="http://www.w3.org/2000/svg"
   xmlns:ffdec="https://www.free-decompiler.com/flash">
  <sodipodi:namedview
     id="namedview19"
     pagecolor="#505050"
     bordercolor="#eeeeee"
     borderopacity="1"
     inkscape:pageshadow="0"
     inkscape:pageopacity="0"
     inkscape:pagecheckerboard="0"
     showgrid="false"
     inkscape:zoom="1.4803559"
     inkscape:cx="291.82171"
     inkscape:cy="230.01225"
     inkscape:window-width="1074"
     inkscape:window-height="1011"
     inkscape:window-x="962"
     inkscape:window-y="35"
     inkscape:window-maximized="0"
     inkscape:current-layer="svg17" />
  <g
     id="use2"
     transform="translate(291.65,230.35)">
    <path
       d="m -274.25,-222.3 q 4.3,4.35 9.9,6.95 l 0.4,0.15 0.2,0.1 1.6,0.6 1.25,0.45 32.65,1.25 37.2,-0.3 q 1.2,-0.65 5.55,-1.8 4.85,-1.35 6.95,-1.35 18.6,0 24.45,2.35 l 4.05,1.6 q 2.75,0.75 8.2,0.75 l 8.05,-0.25 6.65,-0.7 50.15,-0.6 5.25,-2.5 q 5.15,-2.45 7.25,-3.15 l 35.8,0.35 q 4.7,3.15 7.95,5.75 1.9,1.1 7.95,1.1 15.2,0 25.25,-4.85 2.55,-1.2 6.55,-3.35 3.4,-1.5 6.65,-1.5 9.75,0 19.3,4.25 l 6.7,2.9 q 3.65,1.3 6.95,1.3 l 14.7,-0.3 q 1.3,-0.3 2.05,-1.4 0.75,-1.1 2.5,-1.6 6.2,-1.8 34.5,-0.45 l 5.95,0.4 6.75,0.85 44.65,-0.3 q 4.6,-0.4 6.35,-1.35 l 4.9,-3.05 33.9,-0.6 16.2,-1.8 17.55,-1.35 24.4,0.35 q 0.95,4.65 0.95,15.9 0,7.75 -3.75,27.7 -3.75,19.95 -3.75,28.7 0,9.6 1.15,16.65 l 2.6,11.65 q 3.75,15.95 3.75,42.65 0,22 -4.35,35.3 -2.5,7.55 -3.05,9.95 -1.35,6.2 -1.35,14.9 0,2.05 10.1,47.75 L 278.65,43 q 6.7,31.45 6.7,36.1 l -0.2,2.9 q -0.75,7.9 -4.8,31.65 l -4.1,23.35 -0.2,1 -2.1,9.65 v 69.55 l -0.15,1.55 -3.4,0.8 -5.55,0.8 q -7.5,0 -16.7,-2.05 -12.4,-2.7 -17.35,-7.65 -15.95,0.4 -21.15,1.5 -3.35,1.35 -6.05,1.95 L 173,213.85 q -30.7,-0.3 -31.1,-0.7 l -14.25,-1.9 q -12.4,-1.95 -13.4,-3.25 l -37.2,0.45 q -5.75,1.25 -10.8,4.5 -6.4,4.15 -10.15,5.6 -17.5,6.8 -70.45,6.8 -5.1,0 -36.1,-6.55 l -31.85,-6.9 -15.15,-1.25 q -21.45,2.05 -40.3,5.25 -11.7,1.95 -29.55,5.7 l -60.95,-0.35 q -0.3,-0.3 -4.05,-0.9 l -4.1,-0.95 -38.55,0.3 -3.1,1.45 -3.15,1.7 -3.35,0.2 q -0.75,0 -0.75,-1.95 0,-3.5 1.35,-9.7 l 3.05,-12.65 q 4.35,-18.9 4.35,-35 l -0.7,-11.75 -0.2,-2.9 -0.45,-11.1 -0.05,-1 q -0.1,-5.55 0.15,-9.35 0.5,-8.75 -3.4,-18.6 -4.1,-10.35 -4.1,-16.7 0,-3.15 1.5,-10.35 1.4,-6.9 4.15,-17.55 3.9,-15.2 5.1,-21.45 0.5,-2.7 0.5,-3.75 0,-9.5 3.15,-26.75 3.1,-17.2 3.1,-24.5 0,-10.65 -6.25,-54.05 l -6.25,-43.6 q 0,-3.95 1.9,-21.2 1.85,-17.3 1.85,-19.15 0,-29 -5,-55.9 v -18.45 l 2.55,-0.95 1.35,0.1 q 1,0.35 3.05,2.5 l 0.35,0.35 v 0.05 m 21.85,330.7 q 1.45,-3.45 1.45,-5.9 0,-4.7 -2.35,-3.95 -2.45,0.8 -5.4,6.8 -0.85,1.75 -7.05,6.45 -5.75,4.3 -5.75,5.75 0,1.8 0.65,2.45 3.8,3.85 6.15,3.75 1.5,-0.1 3.3,-2.25 1.85,-2.25 3.05,-2.45 2.2,-0.35 5.6,3.05 l 1.9,2.45 1.7,2.35 q 5.7,7.35 7.05,9.65 l 0.3,0.45 0.6,1 q 3.5,5.55 10.25,14 l 3.4,4.2 q 9.75,11.95 34.35,38.85 1.95,0 2.75,-1.65 0.45,-0.95 0.45,-2 0,-5.65 -14.35,-20.9 l -17.1,-17.6 -0.7,-0.9 -6.8,-9.15 -3.6,-4.85 -0.75,-1 -2.65,-3.35 q -1.35,-1.65 -3.15,-5.05 -1.95,-3.55 -3.2,-5.2 -4.55,-6.05 -14.9,-8.7 l 0.8,-0.8 q 2.35,-1.6 4,-5.5 m 101.8,-50.25 q -2.05,-4.55 -4.5,-3.55 -2.2,0.9 -2.2,3.7 0,4.25 3.1,12.05 l 5.15,11.65 1.75,3.9 q 9.95,22.25 9.95,34.8 0,3.15 -1.6,5.9 -0.6,1.05 -3.5,4.7 -2.15,2.7 -3.4,5.7 l -0.4,1 q -1.35,3.65 -1.35,7.75 0,3.2 1.2,6.25 3.45,8.95 17.15,16.4 7.2,3.9 20.2,9.15 16.05,6.25 25,9.85 l -0.25,0.35 q -3.7,1.65 -9.15,5.7 -6,4.5 -6,6.3 0,1.2 0.35,2 0.75,1.7 2.85,1.7 4.7,0 12.35,-7.8 6.9,-7.1 6.9,-9.1 0,-2.15 -10.05,-6.4 -6,-2.55 -22.05,-8.95 -23.5,-9.95 -29.8,-19.2 -2.3,-3.35 -2.3,-6.65 0,-3 1.6,-5.95 l 0.9,-1.4 0.7,-1 2,-2.75 q 5.15,-7 5.15,-14 0,-10.8 -1.75,-16.7 -1.25,-4.25 -8.1,-18.85 l -1.15,-2.7 -2.5,-6.4 -3.25,-8.75 -3,-8.7 m 125.5,-85.4 q -6,-6.2 -6,0.55 0,0.7 1.7,2.7 2,2.35 2.9,5 -7.1,1.15 -9.9,2.85 -2,1.2 -2.4,3.3 -0.6,2.85 -1,3.5 -1.35,2.1 -5.65,3.65 -10.65,3.95 -14.8,7 -2.6,1.9 -6.3,6.1 -1.95,1.85 -6.15,13.6 -4.25,12 -4.25,16.4 l 0.2,4.4 2.5,0.95 1.6,-0.6 0.85,-0.35 q 2.95,-21.1 11.25,-32.25 2.4,-3.3 11.2,-7.1 9.65,-3.75 12.45,-5.25 3.35,-1.8 3.2,-4.55 -0.15,-2.8 0.45,-3.15 4.85,-2.8 10.9,-3.9 1.9,-0.35 2.45,-0.8 0.8,-0.6 0.8,-2.3 0,-1.4 -1.85,-4.45 -1.9,-3 -4.15,-5.3 m -75.45,-3.2 q 1.6,-8.4 3.9,-13.2 3.5,-7.3 10.8,-13.05 6.05,-4.75 21.45,-14.45 13.35,-8.4 13.35,-8.8 0,-8.3 -15.1,1.55 -8.05,5.2 -21.3,15.9 -13.9,10.2 -17.9,26.7 -0.7,2.8 -2.3,13.3 -1.4,8.9 -2.95,13.45 -2.6,7.55 -10.65,17.45 l -7.35,9.2 q 0,1.1 0.2,1.4 0.65,1.15 3.15,1.15 4.1,0 10.75,-9.9 4.75,-7.1 8.1,-14.55 2.45,-5.4 3.75,-13.1 0.8,-4.35 2.1,-13.05 m 56.8,-142.25 q -10.1,11.55 -13.35,14.85 l -5.1,5.8 q -3.55,4.2 -5.15,5.75 -1.8,1.75 -10.95,5.15 -9.95,3.75 -11.7,4.85 h -25.5 l -11.8,-2.9 -6.8,-0.7 q -9.55,0 -19.3,18.55 -0.15,1.1 0.2,2.05 0.65,1.9 3.3,1.9 l 6.6,-7.85 q 6.55,-7.9 9.65,-7.9 l 7.55,0.85 10.6,2.75 h 26.3 q 8.9,-3.55 19.45,-9.75 10.95,-6.45 14.1,-10.2 l 10.7,-10.7 q 9.7,-10 9.7,-12.2 0,-8.55 -8.5,-0.3 m -182.2,157.3 q 0,-3.25 -2.75,-6.5 -2.9,-3.4 -3.65,3.65 0,4.1 -1.05,12.1 l -1.1,11.65 q -0.8,7.5 -2.5,11.8 -0.95,2.35 -5,9.05 l -8,13.2 -2,3.45 q -8.65,15.35 -8.65,21.65 v 3 q 0.55,2.85 3.25,2.85 0.9,0 4.6,-8.3 4.45,-10.05 6.15,-12.65 L -242.6,43 q 4.65,-7.75 8.55,-15.15 1.55,-2.85 4.8,-19.9 3.3,-17.35 3.3,-23.35 m 54.6,-79.4 q -0.15,-2.7 -2.8,-2.25 -2.35,0.4 -3.6,2.1 v 30.8 q 0.25,4.6 -3.65,43.05 -4.05,39.9 -4.05,51 0,3.25 1.65,8.7 l 1,4.4 q 0.6,3.85 0.6,8.35 l -0.4,7.9 -0.9,11.35 q -0.15,4.9 -3.8,7.65 -2.6,1.95 -7.95,3.25 l -2.1,0.5 -5.8,1.45 q -3.55,1.35 -3.55,3.95 0,1.2 0.35,1.95 0.75,1.8 2.9,1.8 2.1,0 12.05,-3.05 10.35,-3.2 12.5,-4.85 l 1.15,-1.25 q 0.9,-1.5 0.9,-4 l -0.25,-5.3 q 0.6,-4.65 1,-12.85 l 0.3,-8.6 q 0,-4.1 -0.7,-8.25 l -0.9,-3.95 q -1.65,-6.15 -1.65,-9 0,-7.35 1.1,-21.05 1.3,-15.8 1.5,-21.4 0.1,-2.15 2.95,-20.2 2.8,-17.35 2.8,-23.2 0,-7.7 -0.65,-11.05 V -94.8 m -59.15,-69 q -3.95,-5 -3.95,-7.15 0,-4.25 -3.75,-4.95 -3.8,-0.7 -3.8,4.15 0,3.45 8.65,15.55 5.95,8.4 9.55,12.55 2.9,3.6 6.2,17.15 2.9,11.65 5.15,11.65 2.3,0 2.95,-1.9 0.2,-0.7 0.2,-3.15 0,-16.25 -12.55,-33.1 -3.15,-4.25 -8.65,-10.8 m 55.35,-18.4 q 1.85,-0.15 2.65,-1.55 0.5,-0.85 0.5,-1.7 0,-0.9 -0.5,-1.7 -0.8,-1.4 -2.65,-1.55 l -16.75,-0.25 -32.35,-2.05 q -3,0.2 -3.8,1 -0.4,0.45 -0.4,2 0,2 3.15,3.2 3.45,1.25 16.8,1.9 l 16.6,0.7 h 16.75 M 54.9,148.15 q 1.55,-3.35 1.55,-4.85 0,-3.35 -1.5,-3.5 -1.35,-0.1 -3.3,2.2 -4.4,5 -4.8,10 l -0.05,1.05 q 0,5.2 8.35,20.85 8.35,15.65 8.35,17.9 0,4.45 -10.9,12.8 l -7.55,5.45 q -3.4,2.5 -3.4,2.95 0,1.1 0.35,1.7 0.85,1.55 3.55,1.55 8.05,0 16.85,-11 3.15,-4 5.45,-8.3 2.1,-3.8 2.1,-5.2 0,-5.65 -8.3,-20.35 Q 53.3,156.7 53.3,152.95 L 53.45,152 q 0.3,-1.45 1.45,-3.85 M 103.5,98.4 q -0.85,-1.5 -2.75,-1.5 l -19.45,3.25 -21.2,3.5 H 37.2 q -4.75,-0.6 -23.1,-5.25 -16.05,-4.1 -23.65,-4.1 -6.85,0 -12.7,3.05 -5.85,3.05 -16.25,3.05 -19.05,0 -39.7,-6.7 l -10.1,-3.1 q -3.4,-0.6 -3.4,1.85 0,4.75 15.55,8.6 20.15,4.05 29.35,6.2 h 16.7 q 4.35,-1.85 8.1,-3.35 7.3,-2.85 12.7,-2.85 4.65,0 24.75,4.6 l 21.1,4.75 h 23.7 q 22.65,-0.95 34.45,-4.4 9.3,-2.7 9.3,-5.9 0,-0.8 -0.5,-1.7 m 47.8,-54.65 q -2.75,0 -3.4,3.7 -0.7,4.55 -2.8,5.8 -2.95,1.65 -10.5,4.6 -9.65,3.8 -13.5,3.8 -4.05,0 -7.45,-1.65 -3.35,-1.7 -5.65,-1.7 -9.15,0 -20.7,7.7 -5.9,3.9 -11,8.5 -0.2,-0.65 -0.2,-3.65 0,-0.85 1.15,-4.2 l 1.1,-3.75 q 0,-1.45 -9.85,-5.75 Q 59.15,53 46.85,48.85 34.9,44.8 27.5,43 15.75,40.15 15.4,43 l -0.05,0.2 q 0,1.25 19.5,7.95 l 26.15,9 q 9.7,3.8 10.55,13.45 l 0.5,5.95 Q 72.6,81.9 75,82 h 0.2 q 1.05,0 4.55,-2.8 l 7.7,-6.1 Q 99.4,64.2 108,64.2 q 1.3,0 4.35,1.65 3,1.65 9.05,1.65 12.9,0 23.55,-7.5 4.1,-2.9 6.65,-6.15 2.4,-3 2.4,-4.85 0.2,-1.45 0,-2.7 -0.45,-2.55 -2.7,-2.55 m 11.75,72.75 q 8.3,-11.75 8.3,-16.1 0,-8.9 -4.2,-3.3 l -7.85,13.2 q -1.8,3.05 -8,10.6 -3.05,3.65 -3.05,8.9 0,3.65 2.2,7.2 l 0.7,1 q 2.95,4.2 9.1,8.3 4.7,3.15 10.6,5.7 10.95,4.75 26.1,7.45 10.05,1.75 13,6.6 l 1.75,4.3 q 0.95,2.85 2.05,4.4 l 6.8,10.15 4.75,7 q 2.35,0 2.95,-2.1 0.2,-0.7 0.2,-3.2 0,-3.3 -9,-16.85 -8.75,-13.1 -10.5,-13.7 Q 202.9,154 195.55,152 l -8.45,-2.2 q -10.6,-2.6 -14.65,-4.3 -5.05,-2.1 -11,-6.85 l -0.8,-0.65 -1.15,-1 q -4.8,-4.3 -4.8,-7 0,-1.75 8.35,-13.5 m 48.2,-39.65 q 0,2.3 0.35,5.15 0.9,7.4 4.15,18.45 2.75,9.3 9.9,29.45 l 2.55,7.1 0.35,1 4.75,14 2.25,7.15 q 4.5,15.15 4.5,23.15 0,5 -3.2,13.3 -3.2,8.25 -3.2,8.65 0,1.15 0.35,1.95 0.75,1.8 2.8,1.8 6.8,0 8.9,-12.25 0.7,-3.85 0.8,-8.65 v -4.4 q 0,-12 -5.2,-28.9 l -0.6,-1.8 q -2.75,-7.9 -4.75,-14 l -0.35,-1 -3.75,-11.55 -5.05,-14.55 q -3.05,-8.6 -4.05,-14.4 -1.6,-8.25 -3.9,-14.5 -1.4,-3.75 -3.05,-6.8 -2,-3.6 -3.2,-3.4 -1.35,0.2 -1.35,5.05 m 36.4,-23.5 q 7.2,5.3 10.2,8.05 1.75,1.6 8.1,9.3 6.3,6.95 9.45,6.95 1.25,0 2.2,-0.95 1,-1 1,-2.2 0,-3.15 -18.75,-19.3 L 245.2,43 240.05,38.55 q -2.75,-3.1 -3.9,-8.8 -0.95,-6.25 -1.85,-8.95 0.2,-6.95 -3.45,-10.45 -1.45,-1.45 -2.45,-0.65 -1.15,0.9 -1.15,4.35 0,8.8 2.05,16.5 2.1,7.65 5.9,12.45 l 2.6,2.8 9.85,7.55 m 10.7,-129.9 q -1.05,-3.25 -2.2,-4.45 -3.25,-3.35 -3.25,11.25 0,4.55 -1.95,12.9 l -1.95,8.7 q 0,0.95 0.45,1.7 0.85,1.55 3.15,1.55 3.45,0 5.45,-12.5 1.3,-8.35 1.3,-13.5 0,-2.45 -1,-5.65 m -45.9,38.9 3.8,-7.9 q 0,-4.1 -2.2,-3.4 -2,0.6 -4.8,4.8 -7.05,10.4 -7.05,20.85 0,6.15 0.95,10.3 0.95,4.15 0.95,6.75 0,5.65 -3.85,15 l -3.9,8.55 q 0,0.9 0.4,1.65 0.8,1.5 2.85,1.5 5.15,0 8.55,-12.65 2.45,-9.1 2.45,-13.95 0,-5.3 -0.95,-9.45 -1,-4.1 -1,-7.55 0,-6.8 3.8,-14.5 m 45.2,-113.75 q 4.95,-6 4.95,-9.2 0,-3.9 -2.75,-3.15 -2.5,0.75 -4.85,4.3 -3.8,5.9 -7.55,9.65 l -10,9.6 q -5.6,5.45 -7.15,8.85 -1.4,3.15 -7.3,9.7 -4.8,5.3 -4.8,9.05 l -1.9,9.6 q -1.9,8.65 -1.9,9.65 -0.15,1.2 0.2,2.2 0.65,2.05 2.95,2.05 2.3,0 3.2,-3.5 l 1.35,-8.75 q 2.25,-15.05 10.9,-23.1 2.15,-2 3.05,-4.55 l 1.6,-4.15 q 0.7,-1.2 5.35,-4.65 l 5.95,-4.55 q 5.15,-4.7 8.7,-9.05 m -196.8,83.4 0.7,-6.4 q 0,-5.5 -1.05,-6 -0.95,-0.45 -2.35,2.85 -3.4,7.9 -3.4,16.25 0,2.65 7.1,8.1 6.85,5.2 17,10.6 24.85,13.2 37.4,12.15 v 0.2 q -1.5,3.4 -3.3,8.95 -2.25,7.15 -2.25,10.45 L 109.95,1 q 0,1.1 0.55,3.75 0.85,3.95 2.45,7.25 4.95,10.3 15.1,10.3 1.45,0 2.15,-1.2 0.55,-0.95 0.55,-2.3 0,-1.5 -2.4,-3.15 l -5.2,-3.1 Q 115.5,7.8 115.5,1.3 q 0,-8.95 3.6,-21.65 l 2.35,-8.1 6.5,0.65 q 5.3,0 7.4,-1.9 1.45,-1.35 1.95,-4.55 0.55,-4.1 1.1,-5.3 1.25,-2.85 4.9,-4.2 3.8,-1.4 14.65,-9.25 10.6,-7.7 10.6,-8.75 0,-6.75 -11.55,1.1 l -12.65,9.95 q -8.65,5.6 -10.25,7.25 -3.4,3.55 -3.55,9.9 h -5.6 l -3.1,-1 q -0.8,-0.75 -2.35,-1.25 -1.95,-0.65 -8.25,-1.55 -15.3,-2.25 -23.45,-6.8 L 72.6,-53.3 q -12.45,-7.65 -12.45,-8.25 l 0.7,-6.45 m 25.4,-39.15 q 9.9,0 14.5,-1.9 3.25,-1.35 3.25,-3.2 0,-1 -0.5,-1.7 -1.1,-1.55 -4.05,-1.55 l -6.8,0.8 -6.8,0.8 q -7.75,0 -12.6,-3.05 -4.2,-2.65 -13,-1.75 l -14.9,2.65 q -3.05,0.8 -3.05,3.15 0,1.2 0.3,1.7 0.95,1.55 4.2,1.55 8.85,0 11.4,-1.15 2.6,-1.15 5.8,-1.15 2.7,0 8.45,2.4 5.75,2.4 13.8,2.4 M 25,-202.05 q -3.85,-0.9 -7.1,-0.1 -3.2,0.85 -3.2,2.7 0,1.6 1.15,2.2 2.4,1.3 10.6,1.6 1.85,2.2 2.25,3.8 l 0.1,2.9 q 0,5.8 -10.55,17.05 L 3,-157.2 q -6.25,6 -8.15,16.1 -1.15,5.9 -1.75,7.8 -1.35,4.4 -4.15,7.85 l -19.05,0.35 q -1.75,0.05 -2.65,1.5 -0.6,0.95 -0.6,1.65 0,0.8 0.6,1.75 0.85,1.45 2.65,1.5 h 19.9 q 5.95,-3.3 8.6,-7.7 1.85,-3.2 2.7,-8.5 1.15,-7.4 1.65,-9.05 1.55,-5.2 5.35,-9.25 5.6,-5.95 17.8,-17.8 9.35,-10.3 9.35,-17.9 0,-10.6 -10.25,-13.15 m 148.3,-4 q 0,-2.75 -3.8,-3.05 -3.4,-0.3 -8.4,1.35 -4.9,1.6 -8.4,4.05 -3.8,2.7 -3.8,5.05 0,4.6 7.7,7.35 l 5.25,2.1 q 2.4,1.35 2.4,3.3 -3.8,15.15 -3.8,17.1 0,10.25 3.75,17.9 l 4.2,8.3 q 2.9,6.05 5.35,12.85 1.85,5.25 3.15,23.95 1.1,15.4 3.45,15.4 2.65,0 3.15,-2.8 0.3,-1.4 0,-2.9 0,-27.45 -8.3,-46.65 l -5.75,-12.7 q -2.6,-6.6 -2.6,-12.9 0,-6.35 1.95,-10.45 1.95,-4.1 1.95,-7.1 0,-4.45 -1.95,-6.8 -3.1,-3.7 -12.1,-5.6 3.8,-1.75 12.3,-4.05 4.3,-1.15 4.3,-3.7"
       fill="#ffffff"
       fill-rule="evenodd"
       stroke="none"
       id="path836" />
    <path
       d="m 173.3,-206.05 q 0,2.55 -4.3,3.7 -8.5,2.3 -12.3,4.05 9,1.9 12.1,5.6 1.95,2.35 1.95,6.8 0,3 -1.95,7.1 -1.95,4.1 -1.95,10.45 0,6.3 2.6,12.9 l 5.75,12.7 q 8.3,19.2 8.3,46.65 0.3,1.5 0,2.9 -0.5,2.8 -3.15,2.8 -2.35,0 -3.45,-15.4 -1.3,-18.7 -3.15,-23.95 -2.45,-6.8 -5.35,-12.85 l -4.2,-8.3 q -3.75,-7.65 -3.75,-17.9 0,-1.95 3.8,-17.1 0,-1.95 -2.4,-3.3 l -5.25,-2.1 q -7.7,-2.75 -7.7,-7.35 0,-2.35 3.8,-5.05 3.5,-2.45 8.4,-4.05 5,-1.65 8.4,-1.35 3.8,0.3 3.8,3.05 m -148.3,4 q 10.25,2.55 10.25,13.15 0,7.6 -9.35,17.9 -12.2,11.85 -17.8,17.8 -3.8,4.05 -5.35,9.25 -0.5,1.65 -1.65,9.05 -0.85,5.3 -2.7,8.5 -2.65,4.4 -8.6,7.7 h -19.9 q -1.8,-0.05 -2.65,-1.5 -0.6,-0.95 -0.6,-1.75 0,-0.7 0.6,-1.65 0.9,-1.45 2.65,-1.5 l 19.05,-0.35 q 2.8,-3.45 4.15,-7.85 0.6,-1.9 1.75,-7.8 1.9,-10.1 8.15,-16.1 l 15.25,-14.7 q 10.55,-11.25 10.55,-17.05 l -0.1,-2.9 q -0.4,-1.6 -2.25,-3.8 -8.2,-0.3 -10.6,-1.6 -1.15,-0.6 -1.15,-2.2 0,-1.85 3.2,-2.7 3.25,-0.8 7.1,0.1 m 61.25,94.9 q -8.05,0 -13.8,-2.4 -5.75,-2.4 -8.45,-2.4 -3.2,0 -5.8,1.15 -2.55,1.15 -11.4,1.15 -3.25,0 -4.2,-1.55 -0.3,-0.5 -0.3,-1.7 0,-2.35 3.05,-3.15 l 14.9,-2.65 q 8.8,-0.9 13,1.75 4.85,3.05 12.6,3.05 l 6.8,-0.8 6.8,-0.8 q 2.95,0 4.05,1.55 0.5,0.7 0.5,1.7 0,1.85 -3.25,3.2 -4.6,1.9 -14.5,1.9 m -25.4,39.15 -0.7,6.45 q 0,0.6 12.45,8.25 l 15.2,9.15 q 8.15,4.55 23.45,6.8 6.3,0.9 8.25,1.55 1.55,0.5 2.35,1.25 l 3.1,1 h 5.6 q 0.15,-6.35 3.55,-9.9 1.6,-1.65 10.25,-7.25 L 157,-60.65 q 11.55,-7.85 11.55,-1.1 0,1.05 -10.6,8.75 -10.85,7.85 -14.65,9.25 -3.65,1.35 -4.9,4.2 -0.55,1.2 -1.1,5.3 -0.5,3.2 -1.95,4.55 -2.1,1.9 -7.4,1.9 l -6.5,-0.65 -2.35,8.1 q -3.6,12.7 -3.6,21.65 0,6.5 7.65,11.25 l 5.2,3.1 q 2.4,1.65 2.4,3.15 0,1.35 -0.55,2.3 -0.7,1.2 -2.15,1.2 Q 117.9,22.3 112.95,12 111.35,8.7 110.5,4.75 109.95,2.1 109.95,1 l 0.75,-11.85 q 0,-3.3 2.25,-10.45 1.8,-5.55 3.3,-8.95 v -0.2 q -12.55,1.05 -37.4,-12.15 -10.15,-5.4 -17,-10.6 -7.1,-5.45 -7.1,-8.1 0,-8.35 3.4,-16.25 1.4,-3.3 2.35,-2.85 1.05,0.5 1.05,6 l -0.7,6.4 m 196.8,-83.4 q -3.55,4.35 -8.7,9.05 l -5.95,4.55 q -4.65,3.45 -5.35,4.65 l -1.6,4.15 q -0.9,2.55 -3.05,4.55 -8.65,8.05 -10.9,23.1 l -1.35,8.75 q -0.9,3.5 -3.2,3.5 -2.3,0 -2.95,-2.05 -0.35,-1 -0.2,-2.2 0,-1 1.9,-9.65 l 1.9,-9.6 q 0,-3.75 4.8,-9.05 5.9,-6.55 7.3,-9.7 1.55,-3.4 7.15,-8.85 l 10,-9.6 q 3.75,-3.75 7.55,-9.65 2.35,-3.55 4.85,-4.3 2.75,-0.75 2.75,3.15 0,3.2 -4.95,9.2 m -45.2,113.75 q -3.8,7.7 -3.8,14.5 0,3.45 1,7.55 0.95,4.15 0.95,9.45 0,4.85 -2.45,13.95 -3.4,12.65 -8.55,12.65 -2.05,0 -2.85,-1.5 -0.4,-0.75 -0.4,-1.65 l 3.9,-8.55 q 3.85,-9.35 3.85,-15 0,-2.6 -0.95,-6.75 -0.95,-4.15 -0.95,-10.3 0,-10.45 7.05,-20.85 2.8,-4.2 4.8,-4.8 2.2,-0.7 2.2,3.4 l -3.8,7.9 m 45.9,-38.9 q 1,3.2 1,5.65 0,5.15 -1.3,13.5 -2,12.5 -5.45,12.5 -2.3,0 -3.15,-1.55 -0.45,-0.75 -0.45,-1.7 l 1.95,-8.7 q 1.95,-8.35 1.95,-12.9 0,-14.6 3.25,-11.25 1.15,1.2 2.2,4.45 M 247.65,53.35 237.8,45.8 235.2,43 q -3.8,-4.8 -5.9,-12.45 -2.05,-7.7 -2.05,-16.5 0,-3.45 1.15,-4.35 1,-0.8 2.45,0.65 3.65,3.5 3.45,10.45 0.9,2.7 1.85,8.95 1.15,5.7 3.9,8.8 l 5.15,4.45 14.65,12.2 q 18.75,16.15 18.75,19.3 0,1.2 -1,2.2 -0.95,0.95 -2.2,0.95 -3.15,0 -9.45,-6.95 -6.35,-7.7 -8.1,-9.3 -3,-2.75 -10.2,-8.05 m -36.4,23.5 q 0,-4.85 1.35,-5.05 1.2,-0.2 3.2,3.4 1.65,3.05 3.05,6.8 2.3,6.25 3.9,14.5 1,5.8 4.05,14.4 l 5.05,14.55 3.75,11.55 0.35,1 q 2,6.1 4.75,14 l 0.6,1.8 q 5.2,16.9 5.2,28.9 v 4.4 q -0.1,4.8 -0.8,8.65 -2.1,12.25 -8.9,12.25 -2.05,0 -2.8,-1.8 -0.35,-0.8 -0.35,-1.95 0,-0.4 3.2,-8.65 3.2,-8.3 3.2,-13.3 0,-8 -4.5,-23.15 l -2.25,-7.15 -4.75,-14 -0.35,-1 -2.55,-7.1 Q 218.5,109.75 215.75,100.45 212.5,89.4 211.6,82 q -0.35,-2.85 -0.35,-5.15 m -48.2,39.65 q -8.35,11.75 -8.35,13.5 0,2.7 4.8,7 l 1.15,1 0.8,0.65 q 5.95,4.75 11,6.85 4.05,1.7 14.65,4.3 l 8.45,2.2 q 7.35,2 13.4,4.05 1.75,0.6 10.5,13.7 9,13.55 9,16.85 0,2.5 -0.2,3.2 -0.6,2.1 -2.95,2.1 l -4.75,-7 -6.8,-10.15 q -1.1,-1.55 -2.05,-4.4 l -1.75,-4.3 q -2.95,-4.85 -13,-6.6 -15.15,-2.7 -26.1,-7.45 -5.9,-2.55 -10.6,-5.7 -6.15,-4.1 -9.1,-8.3 l -0.7,-1 q -2.2,-3.55 -2.2,-7.2 0,-5.25 3.05,-8.9 6.2,-7.55 8,-10.6 l 7.85,-13.2 q 4.2,-5.6 4.2,3.3 0,4.35 -8.3,16.1 M 151.3,43.75 q 2.25,0 2.7,2.55 0.2,1.25 0,2.7 0,1.85 -2.4,4.85 -2.55,3.25 -6.65,6.15 -10.65,7.5 -23.55,7.5 -6.05,0 -9.05,-1.65 -3.05,-1.65 -4.35,-1.65 -8.6,0 -20.55,8.9 l -7.7,6.1 Q 76.25,82 75.2,82 H 75 Q 72.6,81.9 72.05,79.55 L 71.55,73.6 Q 70.7,63.95 61,60.15 l -26.15,-9 Q 15.35,44.45 15.35,43.2 L 15.4,43 q 0.35,-2.85 12.1,0 7.4,1.8 19.35,5.85 12.3,4.15 21.65,8.3 9.85,4.3 9.85,5.75 l -1.1,3.75 q -1.15,3.35 -1.15,4.2 0,3 0.2,3.65 5.1,-4.6 11,-8.5 11.55,-7.7 20.7,-7.7 2.3,0 5.65,1.7 3.4,1.65 7.45,1.65 3.85,0 13.5,-3.8 7.55,-2.95 10.5,-4.6 2.1,-1.25 2.8,-5.8 0.65,-3.7 3.4,-3.7 M 103.5,98.4 q 0.5,0.9 0.5,1.7 0,3.2 -9.3,5.9 -11.8,3.45 -34.45,4.4 h -23.7 l -21.1,-4.75 q -20.1,-4.6 -24.75,-4.6 -5.4,0 -12.7,2.85 -3.75,1.5 -8.1,3.35 h -16.7 q -9.2,-2.15 -29.35,-6.2 -15.55,-3.85 -15.55,-8.6 0,-2.45 3.4,-1.85 l 10.1,3.1 q 20.65,6.7 39.7,6.7 10.4,0 16.25,-3.05 5.85,-3.05 12.7,-3.05 7.6,0 23.65,4.1 18.35,4.65 23.1,5.25 h 22.9 l 21.2,-3.5 19.45,-3.25 q 1.9,0 2.75,1.5 m -48.6,49.75 q -1.15,2.4 -1.45,3.85 l -0.15,0.95 q 0,3.75 8.35,18.45 8.3,14.7 8.3,20.35 0,1.4 -2.1,5.2 -2.3,4.3 -5.45,8.3 -8.8,11 -16.85,11 -2.7,0 -3.55,-1.55 -0.35,-0.6 -0.35,-1.7 0,-0.45 3.4,-2.95 l 7.55,-5.45 q 10.9,-8.35 10.9,-12.8 0,-2.25 -8.35,-17.9 Q 46.8,158.25 46.8,153.05 L 46.85,152 q 0.4,-5 4.8,-10 1.95,-2.3 3.3,-2.2 1.5,0.15 1.5,3.5 0,1.5 -1.55,4.85 M -175.15,-182.2 h -16.75 l -16.6,-0.7 q -13.35,-0.65 -16.8,-1.9 -3.15,-1.2 -3.15,-3.2 0,-1.55 0.4,-2 0.8,-0.8 3.8,-1 l 32.35,2.05 16.75,0.25 q 1.85,0.15 2.65,1.55 0.5,0.8 0.5,1.7 0,0.85 -0.5,1.7 -0.8,1.4 -2.65,1.55 m -55.35,18.4 q 5.5,6.55 8.65,10.8 12.55,16.85 12.55,33.1 0,2.45 -0.2,3.15 -0.65,1.9 -2.95,1.9 -2.25,0 -5.15,-11.65 -3.3,-13.55 -6.2,-17.15 -3.6,-4.15 -9.55,-12.55 -8.65,-12.1 -8.65,-15.55 0,-4.85 3.8,-4.15 3.75,0.7 3.75,4.95 0,2.15 3.95,7.15 m 59.15,69 v 27.95 q 0.65,3.35 0.65,11.05 0,5.85 -2.8,23.2 -2.85,18.05 -2.95,20.2 -0.2,5.6 -1.5,21.4 -1.1,13.7 -1.1,21.05 0,2.85 1.65,9 l 0.9,3.95 q 0.7,4.15 0.7,8.25 l -0.3,8.6 q -0.4,8.2 -1,12.85 l 0.25,5.3 q 0,2.5 -0.9,4 l -1.15,1.25 q -2.15,1.65 -12.5,4.85 -9.95,3.05 -12.05,3.05 -2.15,0 -2.9,-1.8 -0.35,-0.75 -0.35,-1.95 0,-2.6 3.55,-3.95 l 5.8,-1.45 2.1,-0.5 q 5.35,-1.3 7.95,-3.25 3.65,-2.75 3.8,-7.65 l 0.9,-11.35 0.4,-7.9 q 0,-4.5 -0.6,-8.35 l -1,-4.4 q -1.65,-5.45 -1.65,-8.7 0,-11.1 4.05,-51 3.9,-38.45 3.65,-43.05 v -30.8 q 1.25,-1.7 3.6,-2.1 2.65,-0.45 2.8,2.25 m -54.6,79.4 q 0,6 -3.3,23.35 -3.25,17.05 -4.8,19.9 -3.9,7.4 -8.55,15.15 l -4.05,6.55 q -1.7,2.6 -6.15,12.65 -3.7,8.3 -4.6,8.3 -2.7,0 -3.25,-2.85 v -3 q 0,-6.3 8.65,-21.65 l 2,-3.45 8,-13.2 q 4.05,-6.7 5,-9.05 1.7,-4.3 2.5,-11.8 l 1.1,-11.65 q 1.05,-8 1.05,-12.1 0.75,-7.05 3.65,-3.65 2.75,3.25 2.75,6.5 m 182.2,-157.3 q 8.5,-8.25 8.5,0.3 0,2.2 -9.7,12.2 l -10.7,10.7 q -3.15,3.75 -14.1,10.2 -10.55,6.2 -19.45,9.75 h -26.3 l -10.6,-2.75 -7.55,-0.85 q -3.1,0 -9.65,7.9 l -6.6,7.85 q -2.65,0 -3.3,-1.9 -0.35,-0.95 -0.2,-2.05 9.75,-18.55 19.3,-18.55 l 6.8,0.7 11.8,2.9 H -90 q 1.75,-1.1 11.7,-4.85 9.15,-3.4 10.95,-5.15 1.6,-1.55 5.15,-5.75 l 5.1,-5.8 q 3.25,-3.3 13.35,-14.85 m -56.8,142.25 q -1.3,8.7 -2.1,13.05 -1.3,7.7 -3.75,13.1 -3.35,7.45 -8.1,14.55 -6.65,9.9 -10.75,9.9 -2.5,0 -3.15,-1.15 -0.2,-0.3 -0.2,-1.4 l 7.35,-9.2 q 8.05,-9.9 10.65,-17.45 1.55,-4.55 2.95,-13.45 1.6,-10.5 2.3,-13.3 4,-16.5 17.9,-26.7 13.25,-10.7 21.3,-15.9 15.1,-9.85 15.1,-1.55 0,0.4 -13.35,8.8 -15.4,9.7 -21.45,14.45 -7.3,5.75 -10.8,13.05 -2.3,4.8 -3.9,13.2 m 75.45,3.2 q 2.25,2.3 4.15,5.3 1.85,3.05 1.85,4.45 0,1.7 -0.8,2.3 -0.55,0.45 -2.45,0.8 -6.05,1.1 -10.9,3.9 -0.6,0.35 -0.45,3.15 0.15,2.75 -3.2,4.55 -2.8,1.5 -12.45,5.25 -8.8,3.8 -11.2,7.1 -8.3,11.15 -11.25,32.25 l -0.85,0.35 -1.6,0.6 -2.5,-0.95 -0.2,-4.4 q 0,-4.4 4.25,-16.4 4.2,-11.75 6.15,-13.6 3.7,-4.2 6.3,-6.1 4.15,-3.05 14.8,-7 4.3,-1.55 5.65,-3.65 0.4,-0.65 1,-3.5 0.4,-2.1 2.4,-3.3 2.8,-1.7 9.9,-2.85 -0.9,-2.65 -2.9,-5 -1.7,-2 -1.7,-2.7 0,-6.75 6,-0.55 m -125.5,85.4 3,8.7 3.25,8.75 2.5,6.4 1.15,2.7 q 6.85,14.6 8.1,18.85 1.75,5.9 1.75,16.7 0,7 -5.15,14 l -2,2.75 -0.7,1 -0.9,1.4 q -1.6,2.95 -1.6,5.95 0,3.3 2.3,6.65 6.3,9.25 29.8,19.2 16.05,6.4 22.05,8.95 10.05,4.25 10.05,6.4 0,2 -6.9,9.1 -7.65,7.8 -12.35,7.8 -2.1,0 -2.85,-1.7 -0.35,-0.8 -0.35,-2 0,-1.8 6,-6.3 5.45,-4.05 9.15,-5.7 l 0.25,-0.35 q -8.95,-3.6 -25,-9.85 -13,-5.25 -20.2,-9.15 -13.7,-7.45 -17.15,-16.4 -1.2,-3.05 -1.2,-6.25 0,-4.1 1.35,-7.75 l 0.4,-1 q 1.25,-3 3.4,-5.7 2.9,-3.65 3.5,-4.7 1.6,-2.75 1.6,-5.9 0,-12.55 -9.95,-34.8 l -1.75,-3.9 -5.15,-11.65 q -3.1,-7.8 -3.1,-12.05 0,-2.8 2.2,-3.7 2.45,-1 4.5,3.55 m -101.8,50.25 q -1.65,3.9 -4,5.5 l -0.8,0.8 q 10.35,2.65 14.9,8.7 1.25,1.65 3.2,5.2 1.8,3.4 3.15,5.05 l 2.65,3.35 0.75,1 3.6,4.85 6.8,9.15 0.7,0.9 17.1,17.6 q 14.35,15.25 14.35,20.9 0,1.05 -0.45,2 -0.8,1.65 -2.75,1.65 -24.6,-26.9 -34.35,-38.85 l -3.4,-4.2 q -6.75,-8.45 -10.25,-14 l -0.6,-1 -0.3,-0.45 q -1.35,-2.3 -7.05,-9.65 l -1.7,-2.35 -1.9,-2.45 q -3.4,-3.4 -5.6,-3.05 -1.2,0.2 -3.05,2.45 -1.8,2.15 -3.3,2.25 -2.35,0.1 -6.15,-3.75 -0.65,-0.65 -0.65,-2.45 0,-1.45 5.75,-5.75 6.2,-4.7 7.05,-6.45 2.95,-6 5.4,-6.8 2.35,-0.75 2.35,3.95 0,2.45 -1.45,5.9"
       fill="#eeeeee"
       fill-rule="evenodd"
       stroke="none"
       id="path838" />
    <path
       d="m -274.25,-222.3 q 3.5,2.15 7.55,3.5 l 33.4,1.3 38,-0.35 q 1.25,-0.65 5.7,-1.8 4.95,-1.4 7.1,-1.4 19,0 25,2.4 l 4.1,1.65 q 2.85,0.75 8.4,0.75 l 8.25,-0.25 6.8,-0.7 51.25,-0.65 5.35,-2.55 q 5.25,-2.5 7.4,-3.2 l 36.6,0.35 8.15,5.9 q 1.95,1.1 8.1,1.1 15.55,0 25.85,-4.95 2.6,-1.25 6.65,-3.45 3.5,-1.5 6.8,-1.5 10,0 19.75,4.35 l 6.85,2.95 q 3.75,1.35 7.1,1.35 l 15.05,-0.35 q 1.3,-0.3 2.05,-1.4 0.8,-1.15 2.6,-1.65 6.3,-1.85 35.25,-0.45 l 6.05,0.4 6.9,0.85 45.65,-0.3 q 4.7,-0.4 6.5,-1.35 l 5,-3.15 34.65,-0.6 16.6,-1.85 17.9,-1.35 24.95,0.35 q 1,4.75 1,16.25 0,7.9 -3.85,28.3 -3.85,20.4 -3.85,29.35 0,9.8 1.2,17 l 2.65,11.95 q 3.85,16.3 3.85,43.55 0,22.5 -4.45,36.1 -2.55,7.7 -3.15,10.2 -1.35,6.3 -1.35,15.2 0,2.1 10.3,48.8 L 284.6,43 q 7.1,33.05 7.1,37.85 L 291.65,82 q -0.4,6.8 -5.1,34.15 l -3.65,20.85 -0.15,1 q -1.85,9.9 -2.7,12.95 V 222 l -0.2,1.6 -3.45,0.8 -5.65,0.85 q -7.7,0 -17.1,-2.1 -12.65,-2.75 -17.75,-7.85 -16.3,0.45 -21.6,1.55 -3.4,1.4 -6.2,2 l -31.25,-0.25 q -31.4,-0.3 -31.8,-0.7 l -14.55,-1.95 q -12.7,-2 -13.7,-3.35 l -38.05,0.45 q -5.85,1.3 -11.05,4.6 -6.5,4.25 -10.35,5.75 -17.9,6.95 -72,6.95 -5.25,0 -36.9,-6.7 l -32.6,-7.05 -15.45,-1.3 q -21.95,2.1 -41.2,5.4 -11.95,2 -30.2,5.8 l -62.3,-0.35 q -0.3,-0.3 -4.15,-0.9 l -4.2,-1 -39.4,0.3 q -1.9,0.95 -3.15,1.5 -2.45,1.2 -3.25,1.75 l -3.4,0.2 q -0.8,0 -0.8,-2 0,-3.55 1.4,-9.9 l 3.1,-12.95 q 4.45,-19.3 4.45,-35.75 l -0.9,-15 V 152 q -0.45,-8.1 -0.5,-14 v -1 l 0.15,-6.5 q 0.5,-8.95 -3.5,-19.05 -4.2,-10.55 -4.2,-17.05 0,-3.6 1.9,-12.4 l 3.9,-16.1 q 4.3,-16.75 5.35,-22.9 0.35,-2 0.35,-2.9 0,-9.7 3.25,-27.3 3.15,-17.6 3.15,-25.05 0,-10.9 -6.4,-55.25 l -6.35,-44.6 q 0,-4 1.9,-21.65 1.9,-17.7 1.9,-19.6 0,-29.6 -5.1,-57.1 v -18.9 q 2.4,-1.4 4,-0.85 1,0.35 3.1,2.55 1.15,1.2 2.45,2.3 l -0.75,0.05 -2.55,0.95 v 18.45 q 5,26.9 5,55.9 0,1.85 -1.85,19.15 -1.9,17.25 -1.9,21.2 l 6.25,43.6 q 6.25,43.4 6.25,54.05 0,7.3 -3.1,24.5 -3.15,17.25 -3.15,26.75 0,1.05 -0.5,3.75 -1.2,6.25 -5.1,21.45 -2.75,10.65 -4.15,17.55 -1.5,7.2 -1.5,10.35 0,6.35 4.1,16.7 3.9,9.85 3.4,18.6 -0.25,3.8 -0.15,9.35 l 0.05,1 0.45,11.1 0.2,2.9 0.7,11.75 q 0,16.1 -4.35,35 l -3.05,12.65 q -1.35,6.2 -1.35,9.7 0,1.95 0.75,1.95 l 3.35,-0.2 3.15,-1.7 3.1,-1.45 38.55,-0.3 4.1,0.95 q 3.75,0.6 4.05,0.9 l 60.95,0.35 q 17.85,-3.75 29.55,-5.7 18.85,-3.2 40.3,-5.25 l 15.15,1.25 31.85,6.9 q 31,6.55 36.1,6.55 52.95,0 70.45,-6.8 3.75,-1.45 10.15,-5.6 5.05,-3.25 10.8,-4.5 l 37.2,-0.45 q 1,1.3 13.4,3.25 l 14.25,1.9 q 0.4,0.4 31.1,0.7 l 30.6,0.25 q 2.7,-0.6 6.05,-1.95 5.2,-1.1 21.15,-1.5 4.95,4.95 17.35,7.65 9.2,2.05 16.7,2.05 l 5.55,-0.8 3.4,-0.8 0.15,-1.55 v -69.55 l 2.1,-9.65 0.2,-1 4.1,-23.35 Q 284.4,89.9 285.15,82 l 0.2,-2.9 q 0,-4.65 -6.7,-36.1 L 275.3,27.75 q -10.1,-45.7 -10.1,-47.75 0,-8.7 1.35,-14.9 0.55,-2.4 3.05,-9.95 4.35,-13.3 4.35,-35.3 0,-26.7 -3.75,-42.65 l -2.6,-11.65 q -1.15,-7.05 -1.15,-16.65 0,-8.75 3.75,-28.7 3.75,-19.95 3.75,-27.7 0,-11.25 -0.95,-15.9 l -24.4,-0.35 -17.55,1.35 -16.2,1.8 -33.9,0.6 -4.9,3.05 q -1.75,0.95 -6.35,1.35 l -44.65,0.3 -6.75,-0.85 -5.95,-0.4 q -28.3,-1.35 -34.5,0.45 -1.75,0.5 -2.5,1.6 -0.75,1.1 -2.05,1.4 l -14.7,0.3 q -3.3,0 -6.95,-1.3 l -6.7,-2.9 q -9.55,-4.25 -19.3,-4.25 -3.25,0 -6.65,1.5 -4,2.15 -6.55,3.35 -10.05,4.85 -25.25,4.85 -6.05,0 -7.95,-1.1 -3.25,-2.6 -7.95,-5.75 l -35.8,-0.35 q -2.1,0.7 -7.25,3.15 l -5.25,2.5 -50.15,0.6 -6.65,0.7 -8.05,0.25 q -5.45,0 -8.2,-0.75 l -4.05,-1.6 q -5.85,-2.35 -24.45,-2.35 -2.1,0 -6.95,1.35 -4.35,1.15 -5.55,1.8 l -37.2,0.3 -32.65,-1.25 -1.25,-0.45 -1.6,-0.6 -0.2,-0.1 -0.4,-0.15 q -5.6,-2.6 -9.9,-6.95"
       fill="#747474"
       fill-rule="evenodd"
       stroke="none"
       id="path840" />
    <path
       d="m 13.8,-15.95 q 0.85,-2.9 1.55,-2.9 l 0.4,-0.05 q 4.05,-0.1 6.85,8.8 l -0.2,5.7 0.45,2.05 Q 23.15,5.5 16.8,10.1 l -4.1,0.55 Q 9.35,10.8 7.15,3.1 L 6.9,-3.45 q 2.95,-12.35 6.9,-12.5 m 6,7.15 q -1.35,-6.45 -3.1,-6.4 -6.75,5.3 -6.4,15.75 1.25,7.3 3.1,7.25 l 0.85,-0.05 q 4.7,-0.15 5.6,-14.1 L 19.8,-8.8 m 13.7,-8.1 q 2.5,1.8 5.7,10.35 l 0.45,2.25 h 0.75 q 1,-2.8 1.25,-6.8 0.75,-0.05 1,-5.75 1,-2.3 2.9,-2.35 l 0.35,-0.05 q 3.9,2.85 4.1,8.95 l 0.4,1.15 -0.3,1.1 Q 51.25,2.9 52.5,5.9 52.6,9.3 50.7,9.35 48.65,5.1 47.3,-2.65 L 47,-10.2 46.5,-12.85 q -1.6,0.05 -2,7.3 -0.65,0 -0.65,2.65 L 44,0.5 Q 42.5,7 41.15,7 q -1.9,0.1 -4.6,-12.3 -0.5,0 -2.4,-4.8 l -2.4,-2.55 H 31.4 L 29.65,1 30.6,7.4 q -0.65,2.65 -2.95,2.75 -0.75,-0.5 -1.8,-8.25 -0.2,-5.95 2.15,-14.1 0.55,-4.5 4,-4.65 l 1.5,-0.05 m 25.9,-1.4 q 1.4,0.65 2.05,2.2 Q 60.9,-8.05 58.7,4.8 L 59.15,7.9 58.05,9.05 57.3,9.1 55.7,7.6 55.55,3.4 Q 55.5,2.1 56.6,0.65 L 56.4,-5.9 q 0.7,-12.35 2.25,-12.4 H 59.4 M 70.2,-14.65 69.75,-15 H 69.4 q -1.6,0.05 -1.3,17.95 L 68.55,6 Q 68,7.8 66.35,8.8 64.8,8.35 64.7,5.35 l -0.35,-9.3 0.4,-0.4 -0.4,-0.4 -0.05,-1.15 q 1.75,-12.5 3.8,-12.55 h 0.4 q 3.7,-0.15 6.45,7.1 1.5,1 3.45,9.2 l 1.2,0.75 0.9,-7 -0.15,-4.25 q 1.05,-7.8 1.7,-7.85 l 1.15,-0.45 0.8,1.15 0.25,5.85 q 0.15,5.45 -1.2,10.15 l 0.4,1.9 0.15,3.9 -3.35,4.35 -1.9,0.1 Q 75.95,6.5 72.4,-7.75 72.1,-9.8 69.85,-12.7 l 0.35,-1.95 m 29.05,-3.95 -1.8,0.1 q -3.2,3.2 -5.4,11.3 l -1.15,6.85 q 0.1,3.1 4.45,3.45 4.55,-2.65 4.4,-7.4 l -0.35,0.05 -1.5,-0.3 -2.45,1.5 -1.45,-1.05 -0.05,-0.7 4.95,-3 q 3.6,1.35 3.7,3.75 l 0.1,2.9 q -0.95,6.5 -4.45,6.65 -0.5,1.15 -4.2,2.3 Q 88.75,7 88.4,1.15 87.95,1.2 87.6,-1.7 l 0.25,-3.2 -0.35,-0.35 -0.05,-0.4 q 4.45,-15.2 9.9,-15.4 l 1.1,-0.05 q 3.2,0.4 3.3,3.15 l -0.35,0.35 h -0.7 l -1.45,-1 m 22.1,-2.5 1,-1 4.8,-0.15 q 3.9,1.35 4,4.65 0.05,0.6 -2.8,3 l -0.3,0.3 0.05,0.35 q 3.55,-0.1 5.6,4.9 l 0.05,1.3 q -0.6,0.7 -0.8,4.55 -10.05,10 -13.8,10.15 L 118.2,7 q -2.6,0.05 -3.9,-10.2 l 0.3,-0.95 -0.35,-0.3 -0.15,-13.85 q 0,-0.65 3.2,-1.05 -0.05,-0.5 2.2,-1.4 l 1.85,-0.35 m -4.25,6.25 0.2,5.45 0.65,-0.05 q 1.15,-1.6 7.8,-6.35 l 0.9,-1.35 -0.05,-1.6 -1.3,-0.9 q -3,0.1 -6.05,2.75 -2.25,0.1 -2.15,2.05 m 0.35,10.6 0.65,7.7 Q 119.7,3.35 123.45,1 126.2,0.9 130,-5.35 l 0.6,-1.6 -0.05,-0.65 q -1,-2.5 -3.35,-4.05 l -1.3,0.05 q -5.25,3.45 -8.45,7.05 v 0.3 m 21,-6.95 q 3.4,-10.95 7.3,-11.1 h 1.35 q 1.85,1.2 4.45,10.3 0.3,9 1.7,12.05 V 0.4 q 0.1,1.85 -2.15,3.4 -1.8,0.1 -2.95,-6.65 l -0.4,-1.6 -0.4,-0.35 h -0.65 q -5.4,2.9 -6.85,4.6 l 0.1,3.05 q -0.6,3.4 -1.6,3.4 -2.4,-1.3 -2.4,-1.9 L 135.9,4 l 2.6,-12.9 -0.05,-2.3 m 2.2,5.25 v 0.35 l 0.3,1 4.65,-3.5 q 1.65,-0.05 1.6,-2.1 l -0.7,-0.65 -0.05,-2 q -0.45,-5.4 -1.9,-5.35 -2.95,6.9 -3.65,11.9 l -0.25,0.35 m 15.4,2.15 q 1.7,-12.05 4.2,-15.45 -0.15,-3.95 10.1,-4.3 l 1.6,1.1 v 0.75 q 0.05,0.8 -4.25,0.95 -1.65,1.4 -7.15,10.5 l -0.1,7.1 q 0.1,2.5 5.25,4.1 h 0.35 q 5.35,-0.2 7.4,-3.35 l 1.95,-0.45 0.8,1.1 Q 171.6,5.1 167,5.3 h -0.35 q -4.6,0.15 -9.7,-6.75 l -0.9,-2.35 m 26.05,-11.3 1,-0.05 q 3.8,-5.1 4.95,-8.45 l 1.35,-1.05 h 1 q 2.3,0.7 2.4,2.85 l 0.7,1.35 v 0.35 q 0,0.75 -2.9,1.75 l -4.75,6.4 -1.85,3.4 0.05,1.95 q 0.1,2.9 10.1,5.3 l 1.05,0.95 V 0.3 l -0.95,1.05 -10.05,-3.3 0.05,1.3 0.4,1.3 q -0.95,4 -2.5,4.05 h -0.35 q -1.45,-4.1 -2,-9.45 l -0.3,-1 0.25,-1.35 -0.75,-2.6 -0.4,-11.9 0.6,-0.65 1.35,-0.05 q 0.95,-0.05 1.45,3.9 l -0.3,1.95 0.4,1.35 m 15.65,-0.25 q -0.25,-7 6.2,-9.45 H 205 q 6.3,0.8 6.5,6.8 v 0.25 q -2.35,7.7 -5.35,9.7 l -0.75,1.65 0.25,0.3 0.05,1.35 -0.5,0.55 h -0.55 q -1.1,0.05 -1.2,-3.2 0,-0.8 4.65,-8 0.35,-1.95 0.7,-1.95 -0.15,-5.15 -3.4,-5 h -1.35 q -2.85,0.1 -3.85,6.65 0.05,1.05 -0.8,1.1 h -0.8 l -0.85,-0.75 m 6.4,19.3 h -0.3 L 203,3.2 V 2.9 q 0.85,-3.8 3.15,-3.85 1.65,0.45 1.7,2.05 0.05,1.7 -3.7,2.85 M 4,2.2 q -1.45,2.5 -9.2,8.35 l -5.3,0.9 -0.75,0.05 Q -17.8,9.5 -18,3.35 -18.75,3.4 -18.8,1.9 q 2.35,-15.3 4.45,-15.35 -0.05,-0.6 4.75,-3.6 l 6.45,-0.2 q 3.35,1.3 3.55,2.85 -1.1,1.5 -1,3.85 l -1.15,0.8 q -1.5,0.05 -1.6,-3.7 l -0.4,-0.4 -1.1,0.05 q -6.9,3.1 -9.25,8.7 l 0.15,3.4 q 0.2,6.7 6,8.55 L -6.85,6.8 2.45,0.75 4,2.2 m -215.75,-13 q 1.2,0.35 1.25,2.25 l -1.75,17.45 0.85,0.7 0.75,-0.05 q 1.8,-4.2 2,-8.9 l 2.25,-0.9 h 0.4 q 2,0.8 6.65,12.5 l 0.35,0.35 h 1.15 v -0.75 l 0.4,-0.05 -0.5,-2.65 L -198,8 l 0.7,-3.55 -0.5,-1.9 0.55,-6.55 -0.4,-1.55 q 0.95,-1.85 1.3,-5.05 l 0.4,-0.35 1.55,-0.05 q 0.6,-0.05 1.2,1.45 l -1.45,12.75 0.45,2.7 -0.6,4.65 0.15,4.2 q 0.05,2.1 -1.45,3.2 h -0.75 q -4.05,-1.35 -7.25,-9 -0.15,-2.95 -2.1,-4.2 -0.75,10.85 -4.25,10.95 l -0.4,0.45 h -0.35 q -1,0.05 -4.4,-4.5 l 2.35,-22 0.35,-0.4 1.15,-0.05 m 27.55,0.8 q 0.1,3.4 -1.6,14.2 l 0.3,0.3 6.4,-0.2 q 1.15,-0.05 1.95,-14.2 l 0.35,-0.35 q -0.05,-1.05 0.65,-1.1 h 0.35 l 1.45,1.35 q -2,13.1 -1.6,24.4 l -1.35,0.8 q -1.65,-0.65 -1.85,-1.4 l -0.05,-0.7 0.9,-6.05 -1.45,-0.65 q -6.4,0.25 -6.3,2.05 l -0.6,3.85 0.2,4.6 -0.7,0.75 h -0.7 l -1.1,-1.35 q 1.5,-27.6 3.3,-27.65 l 1.45,1.35 m 12.7,-0.3 0.75,-0.85 6.95,-0.2 q 3,-0.15 6.9,-1.5 4.95,0.5 5,1.45 v 1.2 l -0.8,0.9 -3.3,-0.75 -2.8,0.95 -4.9,0.2 q -2.45,0.05 -2.3,4.1 l -0.3,3.75 0.45,0.35 h 0.4 l 2.4,-0.5 q 1.95,0.75 2.15,1.55 V 0.8 q -0.2,1.2 -5.2,3.45 -0.75,0.7 -1.05,6.1 1.5,2.85 2.15,2.85 l 2.05,-0.05 q 7.2,-1.5 8.5,-3.2 l 0.4,-0.05 1.25,1.2 q 0.15,3.85 -9.2,5.65 l -4.05,0.15 q -4.55,-1.95 -4.6,-2.7 L -171,4.4 q 1.05,-1.15 1.45,-6.6 0.8,-0.05 0.7,-2.9 l -0.1,-2.45 q -0.05,-0.8 -2.5,-1.55 l -0.05,-1.2 m 27.1,1.5 -0.5,-0.5 v -0.45 q 0,-1.45 4.05,-3.4 6.95,0.5 7.2,6.7 l 0.5,1.85 q 1.25,-0.05 2.85,-10.7 l 1.75,-1.95 h 0.45 l 1,0.9 0.05,2.3 -3.05,18.1 0.1,2.8 1.05,3.6 0.05,0.5 -1.8,1.95 h -0.95 q -1.35,0.05 -1.5,-5.05 l -4.7,-12.75 q -0.05,-2.8 -1.4,-2.75 l -0.45,0.05 q -2.8,0.1 -3.6,16.25 l 0.55,2.8 q -1.5,4.65 -2.15,4.7 h -0.95 l -2.4,-2.65 -0.1,-2.35 Q -148.5,5.7 -145.3,-7.9 l 0.9,-0.9 m 28.45,-5.25 q 2.45,0.8 2.5,1.35 v 1.1 l -4.5,2.65 -1,1.45 0.05,1.05 2.45,0.65 3.2,-0.85 q 0,0.75 2.55,0.95 0.75,2.85 3.3,2.8 2.6,3.4 2.75,7 0.15,4.3 -4.05,6.55 -4.35,4.4 -7,4.5 -5.2,0.15 -7.6,-4.75 l -0.05,-0.7 q 0.5,-1.4 1,-1.45 h 1.1 q 1.05,-0.05 1.15,2.8 1.55,1.35 3.25,1.65 3.5,-0.15 9.35,-7.8 V 4.2 l -1.9,-4.25 q -2.9,-3.1 -9.4,-2.85 0,-0.45 -2.5,-0.65 l -0.75,-1.75 q -0.2,-5.55 5.7,-8.7 l 0.4,-0.05 m 23.25,0.75 h 0.4 q 4.4,-0.15 7.8,-1.45 9.55,0.95 9.6,3.2 l 0.1,2.75 0.9,2.3 Q -81.25,10.25 -85.45,14.1 -89,14.25 -89.3,5.95 l -0.95,-16.15 -2.8,-1.5 -0.4,-0.4 -0.05,-0.4 0.8,-0.8 m 6.15,6.9 q 0.1,3.9 -0.7,3.95 l 0.45,0.4 0.1,2.8 -0.4,0.4 0.85,1.9 -0.25,3.6 0.4,0.35 h 0.4 q 3.1,-3.05 7.4,-15.25 l -0.1,-1.55 q -0.05,-1.6 -6.35,-1.8 l -3.1,1.3 1.3,3.9 m 24.65,-5.85 q -2.75,6.35 -4.3,15.1 l 0.4,0.45 1.2,-0.05 q 1.45,-1.3 2.8,-1.35 l 2.85,-0.1 1.15,-1.25 v -0.8 l -0.5,-2.4 0.4,-0.45 q -0.25,-6.55 -3.2,-9.2 l -0.8,0.05 m 0.7,-2.9 q 5.35,1.65 5.5,4.7 l 2.3,20.15 q -0.6,2.9 -1.5,2.95 h -0.8 q -0.85,0.05 -1.4,-4 l -0.85,-0.75 -0.1,-3.25 -1.6,-0.35 q 0,0.9 -6.85,2.2 l -0.75,1.3 0.1,3.2 q 0.1,2.1 -1.15,2.5 h -0.4 l -1.25,-1.15 -0.1,-3.65 q 0.8,-10.4 3.1,-15.55 1.75,-7.15 4.15,-8.25 l 1.6,-0.05 m 18.1,-0.65 3.5,-0.1 q 6,-0.25 6.15,3.3 1.5,-0.05 2.6,4.85 -8.6,15.65 -12.05,18.8 -3.45,2.25 -6.3,2.35 l -0.7,-0.65 0.2,-3.95 -1.45,-11.95 0.3,-1.05 -1,-9.15 1,-0.7 2.15,0.2 5.6,-1.95 m -5.1,5.85 q 0.05,1.9 1.5,2.45 l -0.3,1.75 0.55,15.15 0.7,0.7 0.35,-0.05 q 9.1,-11.35 8.8,-20.75 v -0.35 l -2.2,-2.05 q -6.65,0.95 -9.4,2.8 v 0.35 M -211,11.15 v 0.75 l 0.8,-0.05 V 11.1 l -0.8,0.05"
       fill="#000000"
       fill-rule="evenodd"
       stroke="none"
       id="path842" />
  </g>
  <defs
     id="defs15">
    <g
       id="shape0"
       transform="matrix(1.0, 0.0, 0.0, 1.0, 291.65, 230.35)">
      <path
         d="M-274.25 -222.3 Q-269.95 -217.95 -264.35 -215.35 L-263.95 -215.2 -263.75 -215.1 -262.15 -214.5 -260.9 -214.05 -228.25 -212.8 -191.05 -213.1 Q-189.85 -213.75 -185.5 -214.9 -180.65 -216.25 -178.55 -216.25 -159.95 -216.25 -154.1 -213.9 L-150.05 -212.3 Q-147.3 -211.55 -141.85 -211.55 L-133.8 -211.8 -127.15 -212.5 -77.0 -213.1 -71.75 -215.6 Q-66.6 -218.05 -64.5 -218.75 L-28.7 -218.4 Q-24.0 -215.25 -20.75 -212.65 -18.85 -211.55 -12.8 -211.55 2.4 -211.55 12.45 -216.4 15.0 -217.6 19.0 -219.75 22.4 -221.25 25.65 -221.25 35.4 -221.25 44.95 -217.0 L51.65 -214.1 Q55.3 -212.8 58.6 -212.8 L73.3 -213.1 Q74.6 -213.4 75.35 -214.5 76.1 -215.6 77.85 -216.1 84.05 -217.9 112.35 -216.55 L118.3 -216.15 125.05 -215.3 169.7 -215.6 Q174.3 -216.0 176.05 -216.95 L180.95 -220.0 214.85 -220.6 231.05 -222.4 248.6 -223.75 273.0 -223.4 Q273.95 -218.75 273.95 -207.5 273.95 -199.75 270.2 -179.8 266.45 -159.85 266.45 -151.1 266.45 -141.5 267.6 -134.45 L270.2 -122.8 Q273.95 -106.85 273.95 -80.15 273.95 -58.15 269.6 -44.85 267.1 -37.3 266.55 -34.9 265.2 -28.7 265.2 -20.0 265.2 -17.95 275.3 27.75 L278.65 43.0 Q285.35 74.45 285.35 79.1 L285.15 82.0 Q284.4 89.9 280.35 113.65 L276.25 137.0 276.05 138.0 273.95 147.65 273.95 217.2 273.8 218.75 270.4 219.55 264.85 220.35 Q257.35 220.35 248.15 218.3 235.75 215.6 230.8 210.65 214.85 211.05 209.65 212.15 206.3 213.5 203.6 214.1 L173.0 213.85 Q142.3 213.55 141.9 213.15 L127.65 211.25 Q115.25 209.3 114.25 208.0 L77.05 208.45 Q71.3 209.7 66.25 212.95 59.85 217.1 56.1 218.55 38.6 225.35 -14.35 225.35 -19.45 225.35 -50.45 218.8 L-82.3 211.9 -97.45 210.65 Q-118.9 212.7 -137.75 215.9 -149.45 217.85 -167.3 221.6 L-228.25 221.25 Q-228.55 220.95 -232.3 220.35 L-236.4 219.4 -274.95 219.7 -278.05 221.15 -281.2 222.85 -284.55 223.05 Q-285.3 223.05 -285.3 221.1 -285.3 217.6 -283.95 211.4 L-280.9 198.75 Q-276.55 179.85 -276.55 163.75 L-277.25 152.0 -277.45 149.1 -277.9 138.0 -277.95 137.0 Q-278.05 131.45 -277.8 127.65 -277.3 118.9 -281.2 109.05 -285.3 98.7 -285.3 92.35 -285.3 89.2 -283.8 82.0 -282.4 75.1 -279.65 64.45 -275.75 49.25 -274.55 43.0 -274.05 40.3 -274.05 39.25 -274.05 29.75 -270.9 12.5 -267.8 -4.7 -267.8 -12.0 -267.8 -22.65 -274.05 -66.05 L-280.3 -109.65 Q-280.3 -113.6 -278.4 -130.85 -276.55 -148.15 -276.55 -150.0 -276.55 -179.0 -281.55 -205.9 L-281.55 -224.35 -279.0 -225.3 -277.65 -225.2 Q-276.65 -224.85 -274.6 -222.7 L-274.25 -222.35 -274.25 -222.3 M-252.4 108.4 Q-250.95 104.95 -250.95 102.5 -250.95 97.8 -253.3 98.55 -255.75 99.35 -258.7 105.35 -259.55 107.1 -265.75 111.8 -271.5 116.1 -271.5 117.55 -271.5 119.35 -270.85 120.0 -267.05 123.85 -264.7 123.75 -263.2 123.65 -261.4 121.5 -259.55 119.25 -258.35 119.05 -256.15 118.7 -252.75 122.1 L-250.85 124.55 -249.15 126.9 Q-243.45 134.25 -242.1 136.55 L-241.8 137.0 -241.2 138.0 Q-237.7 143.55 -230.95 152.0 L-227.55 156.2 Q-217.8 168.15 -193.2 195.05 -191.25 195.05 -190.45 193.4 -190.0 192.45 -190.0 191.4 -190.0 185.75 -204.35 170.5 L-221.45 152.9 -222.15 152.0 -228.95 142.85 -232.55 138.0 -233.3 137.0 -235.95 133.65 Q-237.3 132.0 -239.1 128.6 -241.05 125.05 -242.3 123.4 -246.85 117.35 -257.2 114.7 L-256.4 113.9 Q-254.05 112.3 -252.4 108.4 M-150.6 58.15 Q-152.65 53.6 -155.1 54.6 -157.3 55.5 -157.3 58.3 -157.3 62.55 -154.2 70.35 L-149.05 82.0 -147.3 85.9 Q-137.35 108.15 -137.35 120.7 -137.35 123.85 -138.95 126.6 -139.55 127.65 -142.45 131.3 -144.6 134.0 -145.85 137.0 L-146.25 138.0 Q-147.6 141.65 -147.6 145.75 -147.6 148.95 -146.4 152.0 -142.95 160.95 -129.25 168.4 -122.05 172.3 -109.05 177.55 -93.0 183.8 -84.05 187.4 L-84.3 187.75 Q-88.0 189.4 -93.45 193.45 -99.45 197.95 -99.45 199.75 -99.45 200.95 -99.1 201.75 -98.35 203.45 -96.25 203.45 -91.55 203.45 -83.9 195.65 -77.0 188.55 -77.0 186.55 -77.0 184.4 -87.05 180.15 -93.05 177.6 -109.1 171.2 -132.6 161.25 -138.9 152.0 -141.2 148.65 -141.2 145.35 -141.2 142.35 -139.6 139.4 L-138.7 138.0 -138.0 137.0 -136.0 134.25 Q-130.85 127.25 -130.85 120.25 -130.85 109.45 -132.6 103.55 -133.85 99.3 -140.7 84.7 L-141.85 82.0 -144.35 75.6 -147.6 66.85 -150.6 58.15 M-25.1 -27.25 Q-31.1 -33.45 -31.1 -26.7 -31.1 -26.0 -29.4 -24.0 -27.4 -21.65 -26.5 -19.0 -33.6 -17.85 -36.4 -16.15 -38.4 -14.95 -38.8 -12.85 -39.4 -10.0 -39.8 -9.35 -41.15 -7.25 -45.45 -5.7 -56.1 -1.75 -60.25 1.3 -62.85 3.2 -66.55 7.4 -68.5 9.25 -72.7 21.0 -76.95 33.0 -76.95 37.4 L-76.75 41.8 -74.25 42.75 -72.65 42.15 -71.8 41.8 Q-68.85 20.7 -60.55 9.55 -58.15 6.25 -49.35 2.45 -39.7 -1.3 -36.9 -2.8 -33.55 -4.6 -33.7 -7.35 -33.85 -10.15 -33.25 -10.5 -28.4 -13.3 -22.35 -14.4 -20.45 -14.75 -19.9 -15.2 -19.1 -15.8 -19.1 -17.5 -19.1 -18.9 -20.95 -21.95 -22.85 -24.95 -25.1 -27.25 M-100.55 -30.45 Q-98.95 -38.85 -96.65 -43.65 -93.15 -50.95 -85.85 -56.7 -79.8 -61.45 -64.4 -71.15 -51.05 -79.55 -51.05 -79.95 -51.05 -88.25 -66.15 -78.4 -74.2 -73.2 -87.45 -62.5 -101.35 -52.3 -105.35 -35.8 -106.05 -33.0 -107.65 -22.5 -109.05 -13.6 -110.6 -9.05 -113.2 -1.5 -121.25 8.4 L-128.6 17.6 Q-128.6 18.7 -128.4 19.0 -127.75 20.15 -125.25 20.15 -121.15 20.15 -114.5 10.25 -109.75 3.15 -106.4 -4.3 -103.95 -9.7 -102.65 -17.4 -101.85 -21.75 -100.55 -30.45 M-43.75 -172.7 Q-53.85 -161.15 -57.1 -157.85 L-62.2 -152.05 Q-65.75 -147.85 -67.35 -146.3 -69.15 -144.55 -78.3 -141.15 -88.25 -137.4 -90.0 -136.3 L-115.5 -136.3 -127.3 -139.2 -134.1 -139.9 Q-143.65 -139.9 -153.4 -121.35 -153.55 -120.25 -153.2 -119.3 -152.55 -117.4 -149.9 -117.4 L-143.3 -125.25 Q-136.75 -133.15 -133.65 -133.15 L-126.1 -132.3 -115.5 -129.55 -89.2 -129.55 Q-80.3 -133.1 -69.75 -139.3 -58.8 -145.75 -55.65 -149.5 L-44.95 -160.2 Q-35.25 -170.2 -35.25 -172.4 -35.25 -180.95 -43.75 -172.7 M-225.95 -15.4 Q-225.95 -18.65 -228.7 -21.9 -231.6 -25.3 -232.35 -18.25 -232.35 -14.15 -233.4 -6.15 L-234.5 5.5 Q-235.3 13.0 -237.0 17.3 -237.95 19.65 -242.0 26.35 L-250.0 39.55 -252.0 43.0 Q-260.65 58.35 -260.65 64.65 L-260.65 67.65 Q-260.1 70.5 -257.4 70.5 -256.5 70.5 -252.8 62.2 -248.35 52.15 -246.65 49.55 L-242.6 43.0 Q-237.95 35.25 -234.05 27.85 -232.5 25.0 -229.25 7.95 -225.95 -9.4 -225.95 -15.4 M-171.35 -94.8 Q-171.5 -97.5 -174.15 -97.05 -176.5 -96.65 -177.75 -94.95 L-177.75 -64.15 Q-177.5 -59.55 -181.4 -21.1 -185.45 18.8 -185.45 29.9 -185.45 33.15 -183.8 38.6 L-182.8 43.0 Q-182.2 46.85 -182.2 51.35 L-182.6 59.25 -183.5 70.6 Q-183.65 75.5 -187.3 78.25 -189.9 80.2 -195.25 81.5 L-197.35 82.0 -203.15 83.45 Q-206.7 84.8 -206.7 87.4 -206.7 88.6 -206.35 89.35 -205.6 91.15 -203.45 91.15 -201.35 91.15 -191.4 88.1 -181.05 84.9 -178.9 83.25 L-177.75 82.0 Q-176.85 80.5 -176.85 78.0 L-177.1 72.7 Q-176.5 68.05 -176.1 59.85 L-175.8 51.25 Q-175.8 47.15 -176.5 43.0 L-177.4 39.05 Q-179.05 32.9 -179.05 30.05 -179.05 22.7 -177.95 9.0 -176.65 -6.8 -176.45 -12.4 -176.35 -14.55 -173.5 -32.6 -170.7 -49.95 -170.7 -55.8 -170.7 -63.5 -171.35 -66.85 L-171.35 -94.8 M-230.5 -163.8 Q-234.45 -168.8 -234.45 -170.95 -234.45 -175.2 -238.2 -175.9 -242.0 -176.6 -242.0 -171.75 -242.0 -168.3 -233.35 -156.2 -227.4 -147.8 -223.8 -143.65 -220.9 -140.05 -217.6 -126.5 -214.7 -114.85 -212.45 -114.85 -210.15 -114.85 -209.5 -116.75 -209.3 -117.45 -209.3 -119.9 -209.3 -136.15 -221.85 -153.0 -225.0 -157.25 -230.5 -163.8 M-175.15 -182.2 Q-173.3 -182.35 -172.5 -183.75 -172.0 -184.6 -172.0 -185.45 -172.0 -186.35 -172.5 -187.15 -173.3 -188.55 -175.15 -188.7 L-191.9 -188.95 -224.25 -191.0 Q-227.25 -190.8 -228.05 -190.0 -228.45 -189.55 -228.45 -188.0 -228.45 -186.0 -225.3 -184.8 -221.85 -183.55 -208.5 -182.9 L-191.9 -182.2 -175.15 -182.2 M54.9 148.15 Q56.45 144.8 56.45 143.3 56.45 139.95 54.95 139.8 53.6 139.7 51.65 142.0 47.25 147.0 46.85 152.0 L46.8 153.05 Q46.8 158.25 55.15 173.9 63.5 189.55 63.5 191.8 63.5 196.25 52.6 204.6 L45.05 210.05 Q41.65 212.55 41.65 213.0 41.65 214.1 42.0 214.7 42.85 216.25 45.55 216.25 53.6 216.25 62.4 205.25 65.55 201.25 67.85 196.95 69.95 193.15 69.95 191.75 69.95 186.1 61.65 171.4 53.3 156.7 53.3 152.95 L53.45 152.0 Q53.75 150.55 54.9 148.15 M103.5 98.4 Q102.65 96.9 100.75 96.9 L81.3 100.15 60.1 103.65 37.2 103.65 Q32.45 103.05 14.1 98.4 -1.95 94.3 -9.55 94.3 -16.4 94.3 -22.25 97.35 -28.1 100.4 -38.5 100.4 -57.55 100.4 -78.2 93.7 L-88.3 90.6 Q-91.7 90.0 -91.7 92.45 -91.7 97.2 -76.15 101.05 -56.0 105.1 -46.8 107.25 L-30.1 107.25 Q-25.75 105.4 -22.0 103.9 -14.7 101.05 -9.3 101.05 -4.65 101.05 15.45 105.65 L36.55 110.4 60.25 110.4 Q82.9 109.45 94.7 106.0 104.0 103.3 104.0 100.1 104.0 99.3 103.5 98.4 M151.3 43.75 Q148.55 43.75 147.9 47.45 147.2 52.0 145.1 53.25 142.15 54.9 134.6 57.85 124.95 61.65 121.1 61.65 117.05 61.65 113.65 60.0 110.3 58.3 108.0 58.3 98.85 58.3 87.3 66.0 81.4 69.9 76.3 74.5 76.1 73.85 76.1 70.85 76.1 70.0 77.25 66.65 L78.35 62.9 Q78.35 61.45 68.5 57.15 59.15 53.0 46.85 48.85 34.9 44.8 27.5 43.0 15.75 40.15 15.4 43.0 L15.35 43.2 Q15.35 44.45 34.85 51.15 L61.0 60.15 Q70.7 63.95 71.55 73.6 L72.05 79.55 Q72.6 81.9 75.0 82.0 L75.2 82.0 Q76.25 82.0 79.75 79.2 L87.45 73.1 Q99.4 64.2 108.0 64.2 109.3 64.2 112.35 65.85 115.35 67.5 121.4 67.5 134.3 67.5 144.95 60.0 149.05 57.1 151.6 53.85 154.0 50.85 154.0 49.0 154.2 47.55 154.0 46.3 153.55 43.75 151.3 43.75 M163.05 116.5 Q171.35 104.75 171.35 100.4 171.35 91.5 167.15 97.1 L159.3 110.3 Q157.5 113.35 151.3 120.9 148.25 124.55 148.25 129.8 148.25 133.45 150.45 137.0 L151.15 138.0 Q154.1 142.2 160.25 146.3 164.95 149.45 170.85 152.0 181.8 156.75 196.95 159.45 207.0 161.2 209.95 166.05 L211.7 170.35 Q212.65 173.2 213.75 174.75 L220.55 184.9 225.3 191.9 Q227.65 191.9 228.25 189.8 228.45 189.1 228.45 186.6 228.45 183.3 219.45 169.75 210.7 156.65 208.95 156.05 202.9 154.0 195.55 152.0 L187.1 149.8 Q176.5 147.2 172.45 145.5 167.4 143.4 161.45 138.65 L160.65 138.0 159.5 137.0 Q154.7 132.7 154.7 130.0 154.7 128.25 163.05 116.5 M211.25 76.85 Q211.25 79.15 211.6 82.0 212.5 89.4 215.75 100.45 218.5 109.75 225.65 129.9 L228.2 137.0 228.55 138.0 233.3 152.0 235.55 159.15 Q240.05 174.3 240.05 182.3 240.05 187.3 236.85 195.6 233.65 203.85 233.65 204.25 233.65 205.4 234.0 206.2 234.75 208.0 236.8 208.0 243.6 208.0 245.7 195.75 246.4 191.9 246.5 187.1 L246.5 182.7 Q246.5 170.7 241.3 153.8 L240.7 152.0 Q237.95 144.1 235.95 138.0 L235.6 137.0 231.85 125.45 226.8 110.9 Q223.75 102.3 222.75 96.5 221.15 88.25 218.85 82.0 217.45 78.25 215.8 75.2 213.8 71.6 212.6 71.8 211.25 72.0 211.25 76.85 M247.65 53.35 Q254.85 58.65 257.85 61.4 259.6 63.0 265.95 70.7 272.25 77.65 275.4 77.65 276.65 77.65 277.6 76.7 278.6 75.7 278.6 74.5 278.6 71.35 259.85 55.2 L245.2 43.0 240.05 38.55 Q237.3 35.45 236.15 29.75 235.2 23.5 234.3 20.8 234.5 13.85 230.85 10.35 229.4 8.9 228.4 9.7 227.25 10.6 227.25 14.05 227.25 22.85 229.3 30.55 231.4 38.2 235.2 43.0 L237.8 45.8 247.65 53.35 M258.35 -76.55 Q257.3 -79.8 256.15 -81.0 252.9 -84.35 252.9 -69.75 252.9 -65.2 250.95 -56.85 L249.0 -48.15 Q249.0 -47.2 249.45 -46.45 250.3 -44.9 252.6 -44.9 256.05 -44.9 258.05 -57.4 259.35 -65.75 259.35 -70.9 259.35 -73.35 258.35 -76.55 M212.45 -37.65 L216.25 -45.55 Q216.25 -49.65 214.05 -48.95 212.05 -48.35 209.25 -44.15 202.2 -33.75 202.2 -23.3 202.2 -17.15 203.15 -13.0 204.1 -8.85 204.1 -6.25 204.1 -0.6 200.25 8.75 L196.35 17.3 Q196.35 18.2 196.75 18.95 197.55 20.45 199.6 20.45 204.75 20.45 208.15 7.8 210.6 -1.3 210.6 -6.15 210.6 -11.45 209.65 -15.6 208.65 -19.7 208.65 -23.15 208.65 -29.95 212.45 -37.65 M257.65 -151.4 Q262.6 -157.4 262.6 -160.6 262.6 -164.5 259.85 -163.75 257.35 -163.0 255.0 -159.45 251.2 -153.55 247.45 -149.8 L237.45 -140.2 Q231.85 -134.75 230.3 -131.35 228.9 -128.2 223.0 -121.65 218.2 -116.35 218.2 -112.6 L216.3 -103.0 Q214.4 -94.35 214.4 -93.35 214.25 -92.15 214.6 -91.15 215.25 -89.1 217.55 -89.1 219.85 -89.1 220.75 -92.6 L222.1 -101.35 Q224.35 -116.4 233.0 -124.45 235.15 -126.45 236.05 -129.0 L237.65 -133.15 Q238.35 -134.35 243.0 -137.8 L248.95 -142.35 Q254.1 -147.05 257.65 -151.4 M60.85 -68.0 L61.55 -74.4 Q61.55 -79.9 60.5 -80.4 59.55 -80.85 58.15 -77.55 54.75 -69.65 54.75 -61.3 54.75 -58.65 61.85 -53.2 68.7 -48.0 78.85 -42.6 103.7 -29.4 116.25 -30.45 L116.25 -30.25 Q114.75 -26.85 112.95 -21.3 110.7 -14.15 110.7 -10.85 L109.95 1.0 Q109.95 2.1 110.5 4.75 111.35 8.7 112.95 12.0 117.9 22.3 128.05 22.3 129.5 22.3 130.2 21.1 130.75 20.15 130.75 18.8 130.75 17.3 128.35 15.65 L123.15 12.55 Q115.5 7.8 115.5 1.3 115.5 -7.65 119.1 -20.35 L121.45 -28.45 127.95 -27.8 Q133.25 -27.8 135.35 -29.7 136.8 -31.05 137.3 -34.25 137.85 -38.35 138.4 -39.55 139.65 -42.4 143.3 -43.75 147.1 -45.15 157.95 -53.0 168.55 -60.7 168.55 -61.75 168.55 -68.5 157.0 -60.65 L144.35 -50.7 Q135.7 -45.1 134.1 -43.45 130.7 -39.9 130.55 -33.55 L124.95 -33.55 121.85 -34.55 Q121.05 -35.3 119.5 -35.8 117.55 -36.45 111.25 -37.35 95.95 -39.6 87.8 -44.15 L72.6 -53.3 Q60.15 -60.95 60.15 -61.55 L60.85 -68.0 M86.25 -107.15 Q96.15 -107.15 100.75 -109.05 104.0 -110.4 104.0 -112.25 104.0 -113.25 103.5 -113.95 102.4 -115.5 99.45 -115.5 L92.65 -114.7 85.85 -113.9 Q78.1 -113.9 73.25 -116.95 69.05 -119.6 60.25 -118.7 L45.35 -116.05 Q42.3 -115.25 42.3 -112.9 42.3 -111.7 42.6 -111.2 43.55 -109.65 46.8 -109.65 55.65 -109.65 58.2 -110.8 60.8 -111.95 64.0 -111.95 66.7 -111.95 72.45 -109.55 78.2 -107.15 86.25 -107.15 M25.0 -202.05 Q21.15 -202.95 17.9 -202.15 14.7 -201.3 14.7 -199.45 14.7 -197.85 15.85 -197.25 18.25 -195.95 26.45 -195.65 28.3 -193.45 28.7 -191.85 L28.8 -188.95 Q28.8 -183.15 18.25 -171.9 L3.0 -157.2 Q-3.25 -151.2 -5.15 -141.1 -6.3 -135.2 -6.9 -133.3 -8.25 -128.9 -11.05 -125.45 L-30.1 -125.1 Q-31.85 -125.05 -32.75 -123.6 -33.35 -122.65 -33.35 -121.95 -33.35 -121.15 -32.75 -120.2 -31.9 -118.75 -30.1 -118.7 L-10.2 -118.7 Q-4.25 -122.0 -1.6 -126.4 0.25 -129.6 1.1 -134.9 2.25 -142.3 2.75 -143.95 4.3 -149.15 8.1 -153.2 13.7 -159.15 25.9 -171.0 35.25 -181.3 35.25 -188.9 35.25 -199.5 25.0 -202.05 M173.3 -206.05 Q173.3 -208.8 169.5 -209.1 166.1 -209.4 161.1 -207.75 156.2 -206.15 152.7 -203.7 148.9 -201.0 148.9 -198.65 148.9 -194.05 156.6 -191.3 L161.85 -189.2 Q164.25 -187.85 164.25 -185.9 160.45 -170.75 160.45 -168.8 160.45 -158.55 164.2 -150.9 L168.4 -142.6 Q171.3 -136.55 173.75 -129.75 175.6 -124.5 176.9 -105.8 178.0 -90.4 180.35 -90.4 183.0 -90.4 183.5 -93.2 183.8 -94.6 183.5 -96.1 183.5 -123.55 175.2 -142.75 L169.45 -155.45 Q166.85 -162.05 166.85 -168.35 166.85 -174.7 168.8 -178.8 170.75 -182.9 170.75 -185.9 170.75 -190.35 168.8 -192.7 165.7 -196.4 156.7 -198.3 160.5 -200.05 169.0 -202.35 173.3 -203.5 173.3 -206.05"
         fill="#ffffff"
         fill-rule="evenodd"
         stroke="none"
         id="path6" />
      <path
         d="M173.3 -206.05 Q173.3 -203.5 169.0 -202.35 160.5 -200.05 156.7 -198.3 165.7 -196.4 168.8 -192.7 170.75 -190.35 170.75 -185.9 170.75 -182.9 168.8 -178.8 166.85 -174.7 166.85 -168.35 166.85 -162.05 169.45 -155.45 L175.2 -142.75 Q183.5 -123.55 183.5 -96.1 183.8 -94.6 183.5 -93.2 183.0 -90.4 180.35 -90.4 178.0 -90.4 176.9 -105.8 175.6 -124.5 173.75 -129.75 171.3 -136.55 168.4 -142.6 L164.2 -150.9 Q160.45 -158.55 160.45 -168.8 160.45 -170.75 164.25 -185.9 164.25 -187.85 161.85 -189.2 L156.6 -191.3 Q148.9 -194.05 148.9 -198.65 148.9 -201.0 152.7 -203.7 156.2 -206.15 161.1 -207.75 166.1 -209.4 169.5 -209.1 173.3 -208.8 173.3 -206.05 M25.0 -202.05 Q35.25 -199.5 35.25 -188.9 35.25 -181.3 25.9 -171.0 13.7 -159.15 8.1 -153.2 4.3 -149.15 2.75 -143.95 2.25 -142.3 1.1 -134.9 0.25 -129.6 -1.6 -126.4 -4.25 -122.0 -10.2 -118.7 L-30.1 -118.7 Q-31.9 -118.75 -32.75 -120.2 -33.35 -121.15 -33.35 -121.95 -33.35 -122.65 -32.75 -123.6 -31.85 -125.05 -30.1 -125.1 L-11.05 -125.45 Q-8.25 -128.9 -6.9 -133.3 -6.3 -135.2 -5.15 -141.1 -3.25 -151.2 3.0 -157.2 L18.25 -171.9 Q28.8 -183.15 28.8 -188.95 L28.7 -191.85 Q28.3 -193.45 26.45 -195.65 18.25 -195.95 15.85 -197.25 14.7 -197.85 14.7 -199.45 14.7 -201.3 17.9 -202.15 21.15 -202.95 25.0 -202.05 M86.25 -107.15 Q78.2 -107.15 72.45 -109.55 66.7 -111.95 64.0 -111.95 60.8 -111.95 58.2 -110.8 55.65 -109.65 46.8 -109.65 43.55 -109.65 42.6 -111.2 42.3 -111.7 42.3 -112.9 42.3 -115.25 45.35 -116.05 L60.25 -118.7 Q69.05 -119.6 73.25 -116.95 78.1 -113.9 85.85 -113.9 L92.65 -114.7 99.45 -115.5 Q102.4 -115.5 103.5 -113.95 104.0 -113.25 104.0 -112.25 104.0 -110.4 100.75 -109.05 96.15 -107.15 86.25 -107.15 M60.85 -68.0 L60.15 -61.55 Q60.15 -60.95 72.6 -53.3 L87.8 -44.15 Q95.95 -39.6 111.25 -37.35 117.55 -36.45 119.5 -35.8 121.05 -35.3 121.85 -34.55 L124.95 -33.55 130.55 -33.55 Q130.7 -39.9 134.1 -43.45 135.7 -45.1 144.35 -50.7 L157.0 -60.65 Q168.55 -68.5 168.55 -61.75 168.55 -60.7 157.95 -53.0 147.1 -45.15 143.3 -43.75 139.65 -42.4 138.4 -39.55 137.85 -38.35 137.3 -34.25 136.8 -31.05 135.35 -29.7 133.25 -27.8 127.95 -27.8 L121.45 -28.45 119.1 -20.35 Q115.5 -7.65 115.5 1.3 115.5 7.8 123.15 12.55 L128.35 15.65 Q130.75 17.3 130.75 18.8 130.75 20.15 130.2 21.1 129.5 22.3 128.05 22.3 117.9 22.3 112.95 12.0 111.35 8.7 110.5 4.75 109.95 2.1 109.95 1.0 L110.7 -10.85 Q110.7 -14.15 112.95 -21.3 114.75 -26.85 116.25 -30.25 L116.25 -30.45 Q103.7 -29.4 78.85 -42.6 68.7 -48.0 61.85 -53.2 54.75 -58.65 54.75 -61.3 54.75 -69.65 58.15 -77.55 59.55 -80.85 60.5 -80.4 61.55 -79.9 61.55 -74.4 L60.85 -68.0 M257.65 -151.4 Q254.1 -147.05 248.95 -142.35 L243.0 -137.8 Q238.35 -134.35 237.65 -133.15 L236.05 -129.0 Q235.15 -126.45 233.0 -124.45 224.35 -116.4 222.1 -101.35 L220.75 -92.6 Q219.85 -89.1 217.55 -89.1 215.25 -89.1 214.6 -91.15 214.25 -92.15 214.4 -93.35 214.4 -94.35 216.3 -103.0 L218.2 -112.6 Q218.2 -116.35 223.0 -121.65 228.9 -128.2 230.3 -131.35 231.85 -134.75 237.45 -140.2 L247.45 -149.8 Q251.2 -153.55 255.0 -159.45 257.35 -163.0 259.85 -163.75 262.6 -164.5 262.6 -160.6 262.6 -157.4 257.65 -151.4 M212.45 -37.65 Q208.65 -29.95 208.65 -23.15 208.65 -19.7 209.65 -15.6 210.6 -11.45 210.6 -6.15 210.6 -1.3 208.15 7.8 204.75 20.45 199.6 20.45 197.55 20.45 196.75 18.95 196.35 18.2 196.35 17.3 L200.25 8.75 Q204.1 -0.6 204.1 -6.25 204.1 -8.85 203.15 -13.0 202.2 -17.15 202.2 -23.3 202.2 -33.75 209.25 -44.15 212.05 -48.35 214.05 -48.95 216.25 -49.65 216.25 -45.55 L212.45 -37.65 M258.35 -76.55 Q259.35 -73.35 259.35 -70.9 259.35 -65.75 258.05 -57.4 256.05 -44.9 252.6 -44.9 250.3 -44.9 249.45 -46.45 249.0 -47.2 249.0 -48.15 L250.95 -56.85 Q252.9 -65.2 252.9 -69.75 252.9 -84.35 256.15 -81.0 257.3 -79.8 258.35 -76.55 M247.65 53.35 L237.8 45.8 235.2 43.0 Q231.4 38.2 229.3 30.55 227.25 22.85 227.25 14.05 227.25 10.6 228.4 9.7 229.4 8.9 230.85 10.35 234.5 13.85 234.3 20.8 235.2 23.5 236.15 29.75 237.3 35.45 240.05 38.55 L245.2 43.0 259.85 55.2 Q278.6 71.35 278.6 74.5 278.6 75.7 277.6 76.7 276.65 77.65 275.4 77.65 272.25 77.65 265.95 70.7 259.6 63.0 257.85 61.4 254.85 58.65 247.65 53.35 M211.25 76.85 Q211.25 72.0 212.6 71.8 213.8 71.6 215.8 75.2 217.45 78.25 218.85 82.0 221.15 88.25 222.75 96.5 223.75 102.3 226.8 110.9 L231.85 125.45 235.6 137.0 235.95 138.0 Q237.95 144.1 240.7 152.0 L241.3 153.8 Q246.5 170.7 246.5 182.7 L246.5 187.1 Q246.4 191.9 245.7 195.75 243.6 208.0 236.8 208.0 234.75 208.0 234.0 206.2 233.65 205.4 233.65 204.25 233.65 203.85 236.85 195.6 240.05 187.3 240.05 182.3 240.05 174.3 235.55 159.15 L233.3 152.0 228.55 138.0 228.2 137.0 225.65 129.9 Q218.5 109.75 215.75 100.45 212.5 89.4 211.6 82.0 211.25 79.15 211.25 76.85 M163.05 116.5 Q154.7 128.25 154.7 130.0 154.7 132.7 159.5 137.0 L160.65 138.0 161.45 138.65 Q167.4 143.4 172.45 145.5 176.5 147.2 187.1 149.8 L195.55 152.0 Q202.9 154.0 208.95 156.05 210.7 156.65 219.45 169.75 228.45 183.3 228.45 186.6 228.45 189.1 228.25 189.8 227.65 191.9 225.3 191.9 L220.55 184.9 213.75 174.75 Q212.65 173.2 211.7 170.35 L209.95 166.05 Q207.0 161.2 196.95 159.45 181.8 156.75 170.85 152.0 164.95 149.45 160.25 146.3 154.1 142.2 151.15 138.0 L150.45 137.0 Q148.25 133.45 148.25 129.8 148.25 124.55 151.3 120.9 157.5 113.35 159.3 110.3 L167.15 97.1 Q171.35 91.5 171.35 100.4 171.35 104.75 163.05 116.5 M151.3 43.75 Q153.55 43.75 154.0 46.3 154.2 47.55 154.0 49.0 154.0 50.85 151.6 53.85 149.05 57.1 144.95 60.0 134.3 67.5 121.4 67.5 115.35 67.5 112.35 65.85 109.3 64.2 108.0 64.2 99.4 64.2 87.45 73.1 L79.75 79.2 Q76.25 82.0 75.2 82.0 L75.0 82.0 Q72.6 81.9 72.05 79.55 L71.55 73.6 Q70.7 63.95 61.0 60.15 L34.85 51.15 Q15.35 44.45 15.35 43.2 L15.4 43.0 Q15.75 40.15 27.5 43.0 34.9 44.8 46.85 48.85 59.15 53.0 68.5 57.15 78.35 61.45 78.35 62.9 L77.25 66.65 Q76.1 70.0 76.1 70.85 76.1 73.85 76.3 74.5 81.4 69.9 87.3 66.0 98.85 58.3 108.0 58.3 110.3 58.3 113.65 60.0 117.05 61.65 121.1 61.65 124.95 61.65 134.6 57.85 142.15 54.9 145.1 53.25 147.2 52.0 147.9 47.45 148.55 43.75 151.3 43.75 M103.5 98.4 Q104.0 99.3 104.0 100.1 104.0 103.3 94.7 106.0 82.9 109.45 60.25 110.4 L36.55 110.4 15.45 105.65 Q-4.65 101.05 -9.3 101.05 -14.7 101.05 -22.0 103.9 -25.75 105.4 -30.1 107.25 L-46.8 107.25 Q-56.0 105.1 -76.15 101.05 -91.7 97.2 -91.7 92.45 -91.7 90.0 -88.3 90.6 L-78.2 93.7 Q-57.55 100.4 -38.5 100.4 -28.1 100.4 -22.25 97.35 -16.4 94.3 -9.55 94.3 -1.95 94.3 14.1 98.4 32.45 103.05 37.2 103.65 L60.1 103.65 81.3 100.15 100.75 96.9 Q102.65 96.9 103.5 98.4 M54.9 148.15 Q53.75 150.55 53.45 152.0 L53.3 152.95 Q53.3 156.7 61.65 171.4 69.95 186.1 69.95 191.75 69.95 193.15 67.85 196.95 65.55 201.25 62.4 205.25 53.6 216.25 45.55 216.25 42.85 216.25 42.0 214.7 41.65 214.1 41.65 213.0 41.65 212.55 45.05 210.05 L52.6 204.6 Q63.5 196.25 63.5 191.8 63.5 189.55 55.15 173.9 46.8 158.25 46.8 153.05 L46.85 152.0 Q47.25 147.0 51.65 142.0 53.6 139.7 54.95 139.8 56.45 139.95 56.45 143.3 56.45 144.8 54.9 148.15 M-175.15 -182.2 L-191.9 -182.2 -208.5 -182.9 Q-221.85 -183.55 -225.3 -184.8 -228.45 -186.0 -228.45 -188.0 -228.45 -189.55 -228.05 -190.0 -227.25 -190.8 -224.25 -191.0 L-191.9 -188.95 -175.15 -188.7 Q-173.3 -188.55 -172.5 -187.15 -172.0 -186.35 -172.0 -185.45 -172.0 -184.6 -172.5 -183.75 -173.3 -182.35 -175.15 -182.2 M-230.5 -163.8 Q-225.0 -157.25 -221.85 -153.0 -209.3 -136.15 -209.3 -119.9 -209.3 -117.45 -209.5 -116.75 -210.15 -114.85 -212.45 -114.85 -214.7 -114.85 -217.6 -126.5 -220.9 -140.05 -223.8 -143.65 -227.4 -147.8 -233.35 -156.2 -242.0 -168.3 -242.0 -171.75 -242.0 -176.6 -238.2 -175.9 -234.45 -175.2 -234.45 -170.95 -234.45 -168.8 -230.5 -163.8 M-171.35 -94.8 L-171.35 -66.85 Q-170.7 -63.5 -170.7 -55.8 -170.7 -49.95 -173.5 -32.6 -176.35 -14.55 -176.45 -12.4 -176.65 -6.8 -177.95 9.0 -179.05 22.7 -179.05 30.05 -179.05 32.9 -177.4 39.05 L-176.5 43.0 Q-175.8 47.15 -175.8 51.25 L-176.1 59.85 Q-176.5 68.05 -177.1 72.7 L-176.85 78.0 Q-176.85 80.5 -177.75 82.0 L-178.9 83.25 Q-181.05 84.9 -191.4 88.1 -201.35 91.15 -203.45 91.15 -205.6 91.15 -206.35 89.35 -206.7 88.6 -206.7 87.4 -206.7 84.8 -203.15 83.45 L-197.35 82.0 -195.25 81.5 Q-189.9 80.2 -187.3 78.25 -183.65 75.5 -183.5 70.6 L-182.6 59.25 -182.2 51.35 Q-182.2 46.85 -182.8 43.0 L-183.8 38.6 Q-185.45 33.15 -185.45 29.9 -185.45 18.8 -181.4 -21.1 -177.5 -59.55 -177.75 -64.15 L-177.75 -94.95 Q-176.5 -96.65 -174.15 -97.05 -171.5 -97.5 -171.35 -94.8 M-225.95 -15.4 Q-225.95 -9.4 -229.25 7.95 -232.5 25.0 -234.05 27.85 -237.95 35.25 -242.6 43.0 L-246.65 49.55 Q-248.35 52.15 -252.8 62.2 -256.5 70.5 -257.4 70.5 -260.1 70.5 -260.65 67.65 L-260.65 64.65 Q-260.65 58.35 -252.0 43.0 L-250.0 39.55 -242.0 26.35 Q-237.95 19.65 -237.0 17.3 -235.3 13.0 -234.5 5.5 L-233.4 -6.15 Q-232.35 -14.15 -232.35 -18.25 -231.6 -25.3 -228.7 -21.9 -225.95 -18.65 -225.95 -15.4 M-43.75 -172.7 Q-35.25 -180.95 -35.25 -172.4 -35.25 -170.2 -44.95 -160.2 L-55.65 -149.5 Q-58.8 -145.75 -69.75 -139.3 -80.3 -133.1 -89.2 -129.55 L-115.5 -129.55 -126.1 -132.3 -133.65 -133.15 Q-136.75 -133.15 -143.3 -125.25 L-149.9 -117.4 Q-152.55 -117.4 -153.2 -119.3 -153.55 -120.25 -153.4 -121.35 -143.65 -139.9 -134.1 -139.9 L-127.3 -139.2 -115.5 -136.3 -90.0 -136.3 Q-88.25 -137.4 -78.3 -141.15 -69.15 -144.55 -67.35 -146.3 -65.75 -147.85 -62.2 -152.05 L-57.1 -157.85 Q-53.85 -161.15 -43.75 -172.7 M-100.55 -30.45 Q-101.85 -21.75 -102.65 -17.4 -103.95 -9.7 -106.4 -4.3 -109.75 3.15 -114.5 10.25 -121.15 20.15 -125.25 20.15 -127.75 20.15 -128.4 19.0 -128.6 18.7 -128.6 17.6 L-121.25 8.4 Q-113.2 -1.5 -110.6 -9.05 -109.05 -13.6 -107.65 -22.5 -106.05 -33.0 -105.35 -35.8 -101.35 -52.3 -87.45 -62.5 -74.2 -73.2 -66.15 -78.4 -51.05 -88.25 -51.05 -79.95 -51.05 -79.55 -64.4 -71.15 -79.8 -61.45 -85.85 -56.7 -93.15 -50.95 -96.65 -43.65 -98.95 -38.85 -100.55 -30.45 M-25.1 -27.25 Q-22.85 -24.95 -20.95 -21.95 -19.1 -18.9 -19.1 -17.5 -19.1 -15.8 -19.9 -15.2 -20.45 -14.75 -22.35 -14.4 -28.4 -13.3 -33.25 -10.5 -33.85 -10.15 -33.7 -7.35 -33.55 -4.6 -36.9 -2.8 -39.7 -1.3 -49.35 2.45 -58.15 6.25 -60.55 9.55 -68.85 20.7 -71.8 41.8 L-72.65 42.15 -74.25 42.75 -76.75 41.8 -76.95 37.4 Q-76.95 33.0 -72.7 21.0 -68.5 9.25 -66.55 7.4 -62.85 3.2 -60.25 1.3 -56.1 -1.75 -45.45 -5.7 -41.15 -7.25 -39.8 -9.35 -39.4 -10.0 -38.8 -12.85 -38.4 -14.95 -36.4 -16.15 -33.6 -17.85 -26.5 -19.0 -27.4 -21.65 -29.4 -24.0 -31.1 -26.0 -31.1 -26.7 -31.1 -33.45 -25.1 -27.25 M-150.6 58.15 L-147.6 66.85 -144.35 75.6 -141.85 82.0 -140.7 84.7 Q-133.85 99.3 -132.6 103.55 -130.85 109.45 -130.85 120.25 -130.85 127.25 -136.0 134.25 L-138.0 137.0 -138.7 138.0 -139.6 139.4 Q-141.2 142.35 -141.2 145.35 -141.2 148.65 -138.9 152.0 -132.6 161.25 -109.1 171.2 -93.05 177.6 -87.05 180.15 -77.0 184.4 -77.0 186.55 -77.0 188.55 -83.9 195.65 -91.55 203.45 -96.25 203.45 -98.35 203.45 -99.1 201.75 -99.45 200.95 -99.45 199.75 -99.45 197.95 -93.45 193.45 -88.0 189.4 -84.3 187.75 L-84.05 187.4 Q-93.0 183.8 -109.05 177.55 -122.05 172.3 -129.25 168.4 -142.95 160.95 -146.4 152.0 -147.6 148.95 -147.6 145.75 -147.6 141.65 -146.25 138.0 L-145.85 137.0 Q-144.6 134.0 -142.45 131.3 -139.55 127.65 -138.95 126.6 -137.35 123.85 -137.35 120.7 -137.35 108.15 -147.3 85.9 L-149.05 82.0 -154.2 70.35 Q-157.3 62.55 -157.3 58.3 -157.3 55.5 -155.1 54.6 -152.65 53.6 -150.6 58.15 M-252.4 108.4 Q-254.05 112.3 -256.4 113.9 L-257.2 114.7 Q-246.85 117.35 -242.3 123.4 -241.05 125.05 -239.1 128.6 -237.3 132.0 -235.95 133.65 L-233.3 137.0 -232.55 138.0 -228.95 142.85 -222.15 152.0 -221.45 152.9 -204.35 170.5 Q-190.0 185.75 -190.0 191.4 -190.0 192.45 -190.45 193.4 -191.25 195.05 -193.2 195.05 -217.8 168.15 -227.55 156.2 L-230.95 152.0 Q-237.7 143.55 -241.2 138.0 L-241.8 137.0 -242.1 136.55 Q-243.45 134.25 -249.15 126.9 L-250.85 124.55 -252.75 122.1 Q-256.15 118.7 -258.35 119.05 -259.55 119.25 -261.4 121.5 -263.2 123.65 -264.7 123.75 -267.05 123.85 -270.85 120.0 -271.5 119.35 -271.5 117.55 -271.5 116.1 -265.75 111.8 -259.55 107.1 -258.7 105.35 -255.75 99.35 -253.3 98.55 -250.95 97.8 -250.95 102.5 -250.95 104.95 -252.4 108.4"
         fill="#eeeeee"
         fill-rule="evenodd"
         stroke="none"
         id="path8" />
      <path
         d="M-274.25 -222.3 Q-270.75 -220.15 -266.7 -218.8 L-233.3 -217.5 -195.3 -217.85 Q-194.05 -218.5 -189.6 -219.65 -184.65 -221.05 -182.5 -221.05 -163.5 -221.05 -157.5 -218.65 L-153.4 -217.0 Q-150.55 -216.25 -145.0 -216.25 L-136.75 -216.5 -129.95 -217.2 -78.7 -217.85 -73.35 -220.4 Q-68.1 -222.9 -65.95 -223.6 L-29.35 -223.25 -21.2 -217.35 Q-19.25 -216.25 -13.1 -216.25 2.45 -216.25 12.75 -221.2 15.35 -222.45 19.4 -224.65 22.9 -226.15 26.2 -226.15 36.2 -226.15 45.95 -221.8 L52.8 -218.85 Q56.55 -217.5 59.9 -217.5 L74.95 -217.85 Q76.25 -218.15 77.0 -219.25 77.8 -220.4 79.6 -220.9 85.9 -222.75 114.85 -221.35 L120.9 -220.95 127.8 -220.1 173.45 -220.4 Q178.15 -220.8 179.95 -221.75 L184.95 -224.9 219.6 -225.5 236.2 -227.35 254.1 -228.7 279.05 -228.35 Q280.05 -223.6 280.05 -212.1 280.05 -204.2 276.2 -183.8 272.35 -163.4 272.35 -154.45 272.35 -144.65 273.55 -137.45 L276.2 -125.5 Q280.05 -109.2 280.05 -81.95 280.05 -59.45 275.6 -45.85 273.05 -38.15 272.45 -35.65 271.1 -29.35 271.1 -20.45 271.1 -18.35 281.4 28.35 L284.6 43.0 Q291.7 76.05 291.7 80.85 L291.65 82.0 Q291.25 88.8 286.55 116.15 L282.9 137.0 282.75 138.0 Q280.9 147.9 280.05 150.95 L280.05 222.0 279.85 223.6 276.4 224.4 270.75 225.25 Q263.05 225.25 253.65 223.15 241.0 220.4 235.9 215.3 219.6 215.75 214.3 216.85 210.9 218.25 208.1 218.85 L176.85 218.6 Q145.45 218.3 145.05 217.9 L130.5 215.95 Q117.8 213.95 116.8 212.6 L78.75 213.05 Q72.9 214.35 67.7 217.65 61.2 221.9 57.35 223.4 39.45 230.35 -14.65 230.35 -19.9 230.35 -51.55 223.65 L-84.15 216.6 -99.6 215.3 Q-121.55 217.4 -140.8 220.7 -152.75 222.7 -171.0 226.5 L-233.3 226.15 Q-233.6 225.85 -237.45 225.25 L-241.65 224.25 -281.05 224.55 Q-282.95 225.5 -284.2 226.05 -286.65 227.25 -287.45 227.8 L-290.85 228.0 Q-291.65 228.0 -291.65 226.0 -291.65 222.45 -290.25 216.1 L-287.15 203.15 Q-282.7 183.85 -282.7 167.4 L-283.6 152.4 -283.6 152.0 Q-284.05 143.9 -284.1 138.0 L-284.1 137.0 -283.95 130.5 Q-283.45 121.55 -287.45 111.45 -291.65 100.9 -291.65 94.4 -291.65 90.8 -289.75 82.0 L-285.85 65.9 Q-281.55 49.15 -280.5 43.0 -280.15 41.0 -280.15 40.1 -280.15 30.4 -276.9 12.8 -273.75 -4.8 -273.75 -12.25 -273.75 -23.15 -280.15 -67.5 L-286.5 -112.1 Q-286.5 -116.1 -284.6 -133.75 -282.7 -151.45 -282.7 -153.35 -282.7 -182.95 -287.8 -210.45 L-287.8 -229.35 Q-285.4 -230.75 -283.8 -230.2 -282.8 -229.85 -280.7 -227.65 -279.55 -226.45 -278.25 -225.35 L-279.0 -225.3 -281.55 -224.35 -281.55 -205.9 Q-276.55 -179.0 -276.55 -150.0 -276.55 -148.15 -278.4 -130.85 -280.3 -113.6 -280.3 -109.65 L-274.05 -66.05 Q-267.8 -22.65 -267.8 -12.0 -267.8 -4.7 -270.9 12.5 -274.05 29.75 -274.05 39.25 -274.05 40.3 -274.55 43.0 -275.75 49.25 -279.65 64.45 -282.4 75.1 -283.8 82.0 -285.3 89.2 -285.3 92.35 -285.3 98.7 -281.2 109.05 -277.3 118.9 -277.8 127.65 -278.05 131.45 -277.95 137.0 L-277.9 138.0 -277.45 149.1 -277.25 152.0 -276.55 163.75 Q-276.55 179.85 -280.9 198.75 L-283.95 211.4 Q-285.3 217.6 -285.3 221.1 -285.3 223.05 -284.55 223.05 L-281.2 222.85 -278.05 221.15 -274.95 219.7 -236.4 219.4 -232.3 220.35 Q-228.55 220.95 -228.25 221.25 L-167.3 221.6 Q-149.45 217.85 -137.75 215.9 -118.9 212.7 -97.45 210.65 L-82.3 211.9 -50.45 218.8 Q-19.45 225.35 -14.35 225.35 38.6 225.35 56.1 218.55 59.85 217.1 66.25 212.95 71.3 209.7 77.05 208.45 L114.25 208.0 Q115.25 209.3 127.65 211.25 L141.9 213.15 Q142.3 213.55 173.0 213.85 L203.6 214.1 Q206.3 213.5 209.65 212.15 214.85 211.05 230.8 210.65 235.75 215.6 248.15 218.3 257.35 220.35 264.85 220.35 L270.4 219.55 273.8 218.75 273.95 217.2 273.95 147.65 276.05 138.0 276.25 137.0 280.35 113.65 Q284.4 89.9 285.15 82.0 L285.35 79.1 Q285.35 74.45 278.65 43.0 L275.3 27.75 Q265.2 -17.95 265.2 -20.0 265.2 -28.7 266.55 -34.9 267.1 -37.3 269.6 -44.85 273.95 -58.15 273.95 -80.15 273.95 -106.85 270.2 -122.8 L267.6 -134.45 Q266.45 -141.5 266.45 -151.1 266.45 -159.85 270.2 -179.8 273.95 -199.75 273.95 -207.5 273.95 -218.75 273.0 -223.4 L248.6 -223.75 231.05 -222.4 214.85 -220.6 180.95 -220.0 176.05 -216.95 Q174.3 -216.0 169.7 -215.6 L125.05 -215.3 118.3 -216.15 112.35 -216.55 Q84.05 -217.9 77.85 -216.1 76.1 -215.6 75.35 -214.5 74.6 -213.4 73.3 -213.1 L58.6 -212.8 Q55.3 -212.8 51.65 -214.1 L44.95 -217.0 Q35.4 -221.25 25.65 -221.25 22.4 -221.25 19.0 -219.75 15.0 -217.6 12.45 -216.4 2.4 -211.55 -12.8 -211.55 -18.85 -211.55 -20.75 -212.65 -24.0 -215.25 -28.7 -218.4 L-64.5 -218.75 Q-66.6 -218.05 -71.75 -215.6 L-77.0 -213.1 -127.15 -212.5 -133.8 -211.8 -141.85 -211.55 Q-147.3 -211.55 -150.05 -212.3 L-154.1 -213.9 Q-159.95 -216.25 -178.55 -216.25 -180.65 -216.25 -185.5 -214.9 -189.85 -213.75 -191.05 -213.1 L-228.25 -212.8 -260.9 -214.05 -262.15 -214.5 -263.75 -215.1 -263.95 -215.2 -264.35 -215.35 Q-269.95 -217.95 -274.25 -222.3"
         fill="#747474"
         fill-rule="evenodd"
         stroke="none"
         id="path10" />
      <path
         d="M13.8 -15.95 Q14.65 -18.85 15.35 -18.85 L15.75 -18.9 Q19.8 -19.0 22.6 -10.1 L22.4 -4.4 22.85 -2.35 Q23.15 5.5 16.8 10.1 L12.7 10.65 Q9.35 10.8 7.15 3.1 L6.9 -3.45 Q9.85 -15.8 13.8 -15.95 M19.8 -8.8 Q18.45 -15.25 16.7 -15.2 9.95 -9.9 10.3 0.55 11.55 7.85 13.4 7.8 L14.25 7.75 Q18.95 7.6 19.85 -6.35 L19.8 -8.8 M33.5 -16.9 Q36.0 -15.1 39.2 -6.55 L39.65 -4.3 40.4 -4.3 Q41.4 -7.1 41.65 -11.1 42.4 -11.15 42.65 -16.85 43.65 -19.15 45.55 -19.2 L45.9 -19.25 Q49.8 -16.4 50.0 -10.3 L50.4 -9.15 50.1 -8.05 Q51.25 2.9 52.5 5.9 52.6 9.3 50.7 9.35 48.65 5.1 47.3 -2.65 L47.0 -10.2 46.5 -12.85 Q44.9 -12.8 44.5 -5.55 43.85 -5.55 43.85 -2.9 L44.0 0.5 Q42.5 7.0 41.15 7.0 39.25 7.1 36.55 -5.3 36.05 -5.3 34.15 -10.1 L31.75 -12.65 31.4 -12.65 29.65 1.0 30.6 7.4 Q29.95 10.05 27.65 10.15 26.9 9.65 25.85 1.9 25.65 -4.05 28.0 -12.2 28.55 -16.7 32.0 -16.85 L33.5 -16.9 M59.4 -18.3 Q60.8 -17.65 61.45 -16.1 60.9 -8.05 58.7 4.8 L59.15 7.9 58.05 9.05 57.3 9.1 55.7 7.6 55.55 3.4 Q55.5 2.1 56.6 0.65 L56.4 -5.9 Q57.1 -18.25 58.65 -18.3 L59.4 -18.3 M70.2 -14.65 L69.75 -15.0 69.4 -15.0 Q67.8 -14.95 68.1 2.95 L68.55 6.0 Q68.0 7.8 66.35 8.8 64.8 8.35 64.7 5.35 L64.35 -3.95 64.75 -4.35 64.35 -4.75 64.3 -5.9 Q66.05 -18.4 68.1 -18.45 L68.5 -18.45 Q72.2 -18.6 74.95 -11.35 76.45 -10.35 78.4 -2.15 L79.6 -1.4 80.5 -8.4 80.35 -12.65 Q81.4 -20.45 82.05 -20.5 L83.2 -20.95 84.0 -19.8 84.25 -13.95 Q84.4 -8.5 83.05 -3.8 L83.45 -1.9 83.6 2.0 80.25 6.35 78.35 6.45 Q75.95 6.5 72.4 -7.75 72.1 -9.8 69.85 -12.7 L70.2 -14.65 M99.25 -18.6 L97.45 -18.5 Q94.25 -15.3 92.05 -7.2 L90.9 -0.35 Q91.0 2.75 95.35 3.1 99.9 0.45 99.75 -4.3 L99.4 -4.25 97.9 -4.55 95.45 -3.05 94.0 -4.1 93.95 -4.8 98.9 -7.8 Q102.5 -6.45 102.6 -4.05 L102.7 -1.15 Q101.75 5.35 98.25 5.5 97.75 6.65 94.05 7.8 88.75 7.0 88.4 1.15 87.95 1.2 87.6 -1.7 L87.85 -4.9 87.5 -5.25 87.45 -5.65 Q91.9 -20.85 97.35 -21.05 L98.45 -21.1 Q101.65 -20.7 101.75 -17.95 L101.4 -17.6 100.7 -17.6 99.25 -18.6 M121.35 -21.1 L122.35 -22.1 127.15 -22.25 Q131.05 -20.9 131.15 -17.6 131.2 -17.0 128.35 -14.6 L128.05 -14.3 128.1 -13.95 Q131.65 -14.05 133.7 -9.05 L133.75 -7.75 Q133.15 -7.05 132.95 -3.2 122.9 6.8 119.15 6.95 L118.2 7.0 Q115.6 7.05 114.3 -3.2 L114.6 -4.15 114.25 -4.45 114.1 -18.3 Q114.1 -18.95 117.3 -19.35 117.25 -19.85 119.5 -20.75 L121.35 -21.1 M117.1 -14.85 L117.3 -9.4 117.95 -9.45 Q119.1 -11.05 125.75 -15.8 L126.65 -17.15 126.6 -18.75 125.3 -19.65 Q122.3 -19.55 119.25 -16.9 117.0 -16.8 117.1 -14.85 M117.45 -4.25 L118.1 3.45 Q119.7 3.35 123.45 1.0 126.2 0.9 130.0 -5.35 L130.6 -6.95 130.55 -7.6 Q129.55 -10.1 127.2 -11.65 L125.9 -11.6 Q120.65 -8.15 117.45 -4.55 L117.45 -4.25 M138.45 -11.2 Q141.85 -22.15 145.75 -22.3 L147.1 -22.3 Q148.95 -21.1 151.55 -12.0 151.85 -3.0 153.25 0.05 L153.25 0.4 Q153.35 2.25 151.1 3.8 149.3 3.9 148.15 -2.85 L147.75 -4.45 147.35 -4.8 146.7 -4.8 Q141.3 -1.9 139.85 -0.2 L139.95 2.85 Q139.35 6.25 138.35 6.25 135.95 4.95 135.95 4.35 L135.9 4.0 138.5 -8.9 138.45 -11.2 M140.65 -5.95 L140.65 -5.6 140.95 -4.6 145.6 -8.1 Q147.25 -8.15 147.2 -10.2 L146.5 -10.85 146.45 -12.85 Q146.0 -18.25 144.55 -18.2 141.6 -11.3 140.9 -6.3 L140.65 -5.95 M156.05 -3.8 Q157.75 -15.85 160.25 -19.25 160.1 -23.2 170.35 -23.55 L171.95 -22.45 171.95 -21.7 Q172.0 -20.9 167.7 -20.75 166.05 -19.35 160.55 -10.25 L160.45 -3.15 Q160.55 -0.65 165.7 0.95 L166.05 0.95 Q171.4 0.75 173.45 -2.4 L175.4 -2.85 176.2 -1.75 Q171.6 5.1 167.0 5.3 L166.65 5.3 Q162.05 5.45 156.95 -1.45 L156.05 -3.8 M182.1 -15.1 L183.1 -15.15 Q186.9 -20.25 188.05 -23.6 L189.4 -24.65 190.4 -24.65 Q192.7 -23.95 192.8 -21.8 L193.5 -20.45 193.5 -20.1 Q193.5 -19.35 190.6 -18.35 L185.85 -11.95 184.0 -8.55 184.05 -6.6 Q184.15 -3.7 194.15 -1.3 L195.2 -0.35 195.2 0.3 194.25 1.35 184.2 -1.95 184.25 -0.65 184.65 0.65 Q183.7 4.65 182.15 4.7 L181.8 4.7 Q180.35 0.6 179.8 -4.75 L179.5 -5.75 179.75 -7.1 179.0 -9.7 178.6 -21.6 179.2 -22.25 180.55 -22.3 Q181.5 -22.35 182.0 -18.4 L181.7 -16.45 182.1 -15.1 M197.75 -15.35 Q197.5 -22.35 203.95 -24.8 L205.0 -24.8 Q211.3 -24.0 211.5 -18.0 L211.5 -17.75 Q209.15 -10.05 206.15 -8.05 L205.4 -6.4 205.65 -6.1 205.7 -4.75 205.2 -4.2 204.65 -4.2 Q203.55 -4.15 203.45 -7.4 203.45 -8.2 208.1 -15.4 208.45 -17.35 208.8 -17.35 208.65 -22.5 205.4 -22.35 L204.05 -22.35 Q201.2 -22.25 200.2 -15.7 200.25 -14.65 199.4 -14.6 L198.6 -14.6 197.75 -15.35 M204.15 3.95 L203.85 3.95 203.0 3.2 203.0 2.9 Q203.85 -0.9 206.15 -0.95 207.8 -0.5 207.85 1.1 207.9 2.8 204.15 3.95 M4.0 2.2 Q2.55 4.7 -5.2 10.55 L-10.5 11.45 -11.25 11.5 Q-17.8 9.5 -18.0 3.35 -18.75 3.4 -18.8 1.9 -16.45 -13.4 -14.35 -13.45 -14.4 -14.05 -9.6 -17.05 L-3.15 -17.25 Q0.2 -15.95 0.4 -14.4 -0.7 -12.9 -0.6 -10.55 L-1.75 -9.75 Q-3.25 -9.7 -3.35 -13.45 L-3.75 -13.85 -4.85 -13.8 Q-11.75 -10.7 -14.1 -5.1 L-13.95 -1.7 Q-13.75 5.0 -7.95 6.85 L-6.85 6.8 2.45 0.75 4.0 2.2 M-211.75 -10.8 Q-210.55 -10.45 -210.5 -8.55 L-212.25 8.9 -211.4 9.6 -210.65 9.55 Q-208.85 5.35 -208.65 0.65 L-206.4 -0.25 -206.0 -0.25 Q-204.0 0.55 -199.35 12.25 L-199.0 12.6 -197.85 12.6 -197.85 11.85 -197.45 11.8 -197.95 9.15 -198.0 8.0 -197.3 4.45 -197.8 2.55 -197.25 -4.0 -197.65 -5.55 Q-196.7 -7.4 -196.35 -10.6 L-195.95 -10.95 -194.4 -11.0 Q-193.8 -11.05 -193.2 -9.55 L-194.65 3.2 -194.2 5.9 -194.8 10.55 -194.65 14.75 Q-194.6 16.85 -196.1 17.95 L-196.85 17.95 Q-200.9 16.6 -204.1 8.95 -204.25 6.0 -206.2 4.75 -206.95 15.6 -210.45 15.7 L-210.85 16.15 -211.2 16.15 Q-212.2 16.2 -215.6 11.65 L-213.25 -10.35 -212.9 -10.75 -211.75 -10.8 M-184.2 -10.0 Q-184.1 -6.6 -185.8 4.2 L-185.5 4.5 -179.1 4.3 Q-177.95 4.25 -177.15 -9.9 L-176.8 -10.25 Q-176.85 -11.3 -176.15 -11.35 L-175.8 -11.35 -174.35 -10.0 Q-176.35 3.1 -175.95 14.4 L-177.3 15.2 Q-178.95 14.55 -179.15 13.8 L-179.2 13.1 -178.3 7.05 -179.75 6.4 Q-186.15 6.65 -186.05 8.45 L-186.65 12.3 -186.45 16.9 -187.15 17.65 -187.85 17.65 -188.95 16.3 Q-187.45 -11.3 -185.65 -11.35 L-184.2 -10.0 M-171.5 -10.3 L-170.75 -11.15 -163.8 -11.35 Q-160.8 -11.5 -156.9 -12.85 -151.95 -12.35 -151.9 -11.4 L-151.9 -10.2 -152.7 -9.3 -156.0 -10.05 -158.8 -9.1 -163.7 -8.9 Q-166.15 -8.85 -166.0 -4.8 L-166.3 -1.05 -165.85 -0.7 -165.45 -0.7 -163.05 -1.2 Q-161.1 -0.45 -160.9 0.35 L-160.9 0.8 Q-161.1 2.0 -166.1 4.25 -166.85 4.95 -167.15 10.35 -165.65 13.2 -165.0 13.2 L-162.95 13.15 Q-155.75 11.65 -154.45 9.95 L-154.05 9.9 -152.8 11.1 Q-152.65 14.95 -162.0 16.75 L-166.05 16.9 Q-170.6 14.95 -170.65 14.2 L-171.0 4.4 Q-169.95 3.25 -169.55 -2.2 -168.75 -2.25 -168.85 -5.1 L-168.95 -7.55 Q-169.0 -8.35 -171.45 -9.1 L-171.5 -10.3 M-144.4 -8.8 L-144.9 -9.3 -144.9 -9.75 Q-144.9 -11.2 -140.85 -13.15 -133.9 -12.65 -133.65 -6.45 L-133.15 -4.6 Q-131.9 -4.65 -130.3 -15.3 L-128.55 -17.25 -128.1 -17.25 -127.1 -16.35 -127.05 -14.05 -130.1 4.05 -130.0 6.85 -128.95 10.45 -128.9 10.95 -130.7 12.9 -131.65 12.9 Q-133.0 12.95 -133.15 7.85 L-137.85 -4.9 Q-137.9 -7.7 -139.25 -7.65 L-139.7 -7.6 Q-142.5 -7.5 -143.3 8.65 L-142.75 11.45 Q-144.25 16.1 -144.9 16.15 L-145.85 16.15 -148.25 13.5 -148.35 11.15 Q-148.5 5.7 -145.3 -7.9 L-144.4 -8.8 M-115.95 -14.05 Q-113.5 -13.25 -113.45 -12.7 L-113.45 -11.6 -117.95 -8.95 -118.95 -7.5 -118.9 -6.45 -116.45 -5.8 -113.25 -6.65 Q-113.25 -5.9 -110.7 -5.7 -109.95 -2.85 -107.4 -2.9 -104.8 0.5 -104.65 4.1 -104.5 8.4 -108.7 10.65 -113.05 15.05 -115.7 15.15 -120.9 15.3 -123.3 10.4 L-123.35 9.7 Q-122.85 8.3 -122.35 8.25 L-121.25 8.25 Q-120.2 8.2 -120.1 11.05 -118.55 12.4 -116.85 12.7 -113.35 12.55 -107.5 4.9 L-107.5 4.2 -109.4 -0.05 Q-112.3 -3.15 -118.8 -2.9 -118.8 -3.35 -121.3 -3.55 L-122.05 -5.3 Q-122.25 -10.85 -116.35 -14.0 L-115.95 -14.05 M-92.7 -13.3 L-92.3 -13.3 Q-87.9 -13.45 -84.5 -14.75 -74.95 -13.8 -74.9 -11.55 L-74.8 -8.8 -73.9 -6.5 Q-81.25 10.25 -85.45 14.1 -89.0 14.25 -89.3 5.95 L-90.25 -10.2 -93.05 -11.7 -93.45 -12.1 -93.5 -12.5 -92.7 -13.3 M-86.55 -6.4 Q-86.45 -2.5 -87.25 -2.45 L-86.8 -2.05 -86.7 0.75 -87.1 1.15 -86.25 3.05 -86.5 6.65 -86.1 7.0 -85.7 7.0 Q-82.6 3.95 -78.3 -8.25 L-78.4 -9.8 Q-78.45 -11.4 -84.75 -11.6 L-87.85 -10.3 -86.55 -6.4 M-61.9 -12.25 Q-64.65 -5.9 -66.2 2.85 L-65.8 3.3 -64.6 3.25 Q-63.15 1.95 -61.8 1.9 L-58.95 1.8 -57.8 0.55 -57.8 -0.25 -58.3 -2.65 -57.9 -3.1 Q-58.15 -9.65 -61.1 -12.3 L-61.9 -12.25 M-61.2 -15.15 Q-55.85 -13.5 -55.7 -10.45 L-53.4 9.7 Q-54.0 12.6 -54.9 12.65 L-55.7 12.65 Q-56.55 12.7 -57.1 8.65 L-57.95 7.9 -58.05 4.65 -59.65 4.3 Q-59.65 5.2 -66.5 6.5 L-67.25 7.8 -67.15 11.0 Q-67.05 13.1 -68.3 13.5 L-68.7 13.5 -69.95 12.35 -70.05 8.7 Q-69.25 -1.7 -66.95 -6.85 -65.2 -14.0 -62.8 -15.1 L-61.2 -15.15 M-43.1 -15.8 L-39.6 -15.9 Q-33.6 -16.15 -33.45 -12.6 -31.95 -12.65 -30.85 -7.75 -39.45 7.9 -42.9 11.05 -46.35 13.3 -49.2 13.4 L-49.9 12.75 -49.7 8.8 -51.15 -3.15 -50.85 -4.2 -51.85 -13.35 -50.85 -14.05 -48.7 -13.85 -43.1 -15.8 M-48.2 -9.95 Q-48.15 -8.05 -46.7 -7.5 L-47.0 -5.75 -46.45 9.4 -45.75 10.1 -45.4 10.05 Q-36.3 -1.3 -36.6 -10.7 L-36.6 -11.05 -38.8 -13.1 Q-45.45 -12.15 -48.2 -10.3 L-48.2 -9.95 M-211.0 11.15 L-211.0 11.9 -210.2 11.85 -210.2 11.1 -211.0 11.15"
         fill="#000000"
         fill-rule="evenodd"
         stroke="none"
         id="path12" />
    </g>
  </defs>
</svg>
