<?xml version="1.0" encoding="UTF-8" standalone="no"?>
<svg xmlns:ffdec="https://www.free-decompiler.com/flash" xmlns:xlink="http://www.w3.org/1999/xlink" ffdec:objectType="frame" height="43.75px" width="98.125px" xmlns="http://www.w3.org/2000/svg">
  <g transform="matrix(2.5, 0.0, 0.0, 2.5, 49.0, 21.875)">
    <use ffdec:characterId="369" height="17.5" transform="matrix(1.0, 0.0, 0.0, 1.0, -19.6, -8.75)" width="39.25" xlink:href="#shape0"/>
  </g>
  <defs>
    <g id="shape0" transform="matrix(1.0, 0.0, 0.0, 1.0, 19.6, 8.75)">
      <path d="M0.65 -0.65 L0.65 -0.5 1.0 -0.5 2.35 -0.75 Q3.1 -0.25 3.75 -0.2 L6.95 0.15 9.1 0.6 11.75 0.6 Q11.75 0.55 12.1 0.45 L13.2 0.4 14.1 -0.3 13.6 -0.1 13.15 0.25 11.7 0.45 9.2 0.5 8.15 0.3 7.7 0.25 6.25 -0.05 5.75 -0.1 5.25 -0.15 4.85 -0.25 3.8 -0.3 Q2.9 -0.4 2.45 -0.85 L1.5 -0.75 0.65 -0.65 M2.05 -2.3 Q1.7 -2.35 1.55 -2.5 L1.2 -2.65 1.15 -2.65 1.15 -2.55 1.85 -2.25 4.05 -2.2 5.45 -2.15 6.4 -1.95 7.15 -1.95 7.4 -2.05 13.05 -2.1 14.25 -1.8 14.75 -1.8 14.75 -1.9 14.3 -1.9 13.05 -2.25 7.35 -2.2 6.5 -2.05 5.7 -2.2 5.55 -2.25 4.15 -2.3 3.7 -2.35 2.45 -2.25 2.05 -2.3 M3.85 -4.35 L2.8 -4.4 1.45 -4.35 0.3 -4.7 0.25 -4.7 0.25 -4.6 1.4 -4.25 3.8 -4.25 8.15 -3.6 12.55 -3.6 12.55 -3.7 8.25 -3.7 7.15 -3.75 6.9 -3.8 6.5 -3.85 5.9 -4.0 5.35 -4.05 3.85 -4.35 M-7.6 6.5 Q-5.95 4.55 -5.15 1.9 L-3.55 -5.1 -3.55 -7.55 -3.45 -7.6 -1.3 -6.8 1.95 -6.05 8.7 -6.0 9.3 -6.05 9.45 -6.15 12.0 -6.2 12.75 -6.25 13.55 -6.5 13.95 -6.55 15.9 -6.75 16.0 -6.85 Q17.7 -7.35 19.45 -8.7 L19.45 -8.75 19.6 -8.75 19.65 -8.1 Q19.65 -6.6 18.85 -3.45 L17.9 0.4 Q17.4 2.65 15.15 5.55 12.8 8.6 11.05 8.6 L10.95 8.6 10.9 8.65 10.8 8.65 10.85 8.6 10.75 8.5 4.3 8.5 1.2 7.45 0.95 7.3 1.3 7.3 1.85 7.15 2.05 7.3 2.6 7.3 2.8 7.2 3.0 7.3 5.3 7.35 6.3 7.6 7.35 7.6 7.4 7.4 7.25 7.4 6.05 7.35 5.55 7.3 5.35 7.25 3.05 7.15 2.75 7.05 2.15 7.2 1.9 7.0 1.4 7.1 0.75 7.2 0.35 6.85 0.3 6.8 -0.05 6.5 -0.7 5.8 -0.85 5.8 -0.85 5.85 -4.45 6.4 -4.5 6.4 -4.55 6.35 -5.05 6.05 -5.1 6.05 -4.65 6.4 -5.35 6.5 -7.6 6.5 M6.65 6.15 L5.5 6.1 5.5 6.05 3.4 6.05 Q2.55 5.45 1.75 5.45 L1.3 5.55 -0.15 5.6 -0.65 5.45 -0.95 5.4 Q-1.4 5.4 -1.5 5.55 L-1.75 5.65 -2.5 5.35 -2.55 5.35 -2.55 5.45 -2.2 5.65 -1.7 5.75 -1.35 5.65 -1.0 5.55 -0.5 5.65 -0.2 5.7 1.35 5.7 1.75 5.6 Q2.55 5.6 3.35 6.15 L7.3 6.35 8.6 6.3 8.6 6.2 7.05 6.25 6.65 6.15 M11.75 2.35 L11.65 2.2 10.0 2.2 8.75 2.5 8.5 2.2 7.9 2.1 7.4 2.05 6.5 2.2 6.0 2.35 5.3 1.9 5.3 1.85 3.0 1.85 2.0 1.75 0.3 1.7 -0.6 1.2 -1.3 0.85 -1.3 0.95 Q-0.75 1.5 0.2 1.8 L1.9 1.85 2.8 2.0 5.2 2.0 5.75 2.3 6.0 2.5 6.55 2.35 7.35 2.2 8.35 2.4 8.7 2.6 9.1 2.6 10.05 2.35 11.75 2.35 M10.9 4.2 L10.9 4.1 8.5 4.15 5.25 4.6 3.9 4.1 2.8 3.65 2.15 3.6 -0.25 3.65 -0.7 3.55 -1.25 3.5 -1.3 3.5 -1.3 3.6 -0.35 3.75 2.7 3.75 3.65 4.25 5.6 4.7 8.5 4.3 10.55 4.25 10.9 4.2" fill="#ffffff" fill-rule="evenodd" stroke="none"/>
      <path d="M3.85 -4.35 L5.35 -4.05 5.9 -4.0 6.5 -3.85 6.9 -3.8 7.15 -3.75 8.25 -3.7 12.55 -3.7 12.55 -3.6 8.15 -3.6 3.8 -4.25 1.4 -4.25 0.25 -4.6 0.25 -4.7 0.3 -4.7 1.45 -4.35 2.8 -4.4 3.85 -4.35 M2.05 -2.3 L2.45 -2.25 3.7 -2.35 4.15 -2.3 5.55 -2.25 5.7 -2.2 6.5 -2.05 7.35 -2.2 13.05 -2.25 14.3 -1.9 14.75 -1.9 14.75 -1.8 14.25 -1.8 13.05 -2.1 7.4 -2.05 7.15 -1.95 6.4 -1.95 5.45 -2.15 4.05 -2.2 1.85 -2.25 1.15 -2.55 1.15 -2.65 1.2 -2.65 1.55 -2.5 Q1.7 -2.35 2.05 -2.3 M0.65 -0.65 L1.5 -0.75 2.45 -0.85 Q2.9 -0.4 3.8 -0.3 L4.85 -0.25 5.25 -0.15 5.75 -0.1 6.25 -0.05 7.7 0.25 8.15 0.3 9.2 0.5 11.7 0.45 13.15 0.25 13.6 -0.1 14.1 -0.3 13.2 0.4 12.1 0.45 Q11.75 0.55 11.75 0.6 L9.1 0.6 6.95 0.15 3.75 -0.2 Q3.1 -0.25 2.35 -0.75 L1.0 -0.5 0.65 -0.5 0.65 -0.65 M-4.65 6.4 L-5.1 6.05 -5.05 6.05 -4.55 6.35 -4.5 6.4 -4.65 6.4 M0.75 7.2 L1.4 7.1 1.9 7.0 2.15 7.2 2.75 7.05 3.05 7.15 5.35 7.25 5.55 7.3 6.05 7.35 7.25 7.4 7.4 7.4 7.35 7.6 6.3 7.6 5.3 7.35 3.0 7.3 2.8 7.2 2.6 7.3 2.05 7.3 1.85 7.15 1.3 7.3 0.95 7.3 0.75 7.2 M10.9 4.2 L10.55 4.25 8.5 4.3 5.6 4.7 3.65 4.25 2.7 3.75 -0.35 3.75 -1.3 3.6 -1.3 3.5 -1.25 3.5 -0.7 3.55 -0.25 3.65 2.15 3.6 2.8 3.65 3.9 4.1 5.25 4.6 8.5 4.15 10.9 4.1 10.9 4.2 M11.75 2.35 L10.05 2.35 9.1 2.6 8.7 2.6 8.35 2.4 7.35 2.2 6.55 2.35 6.0 2.5 5.75 2.3 5.2 2.0 2.8 2.0 1.9 1.85 0.2 1.8 Q-0.75 1.5 -1.3 0.95 L-1.3 0.85 -0.6 1.2 0.3 1.7 2.0 1.75 3.0 1.85 5.3 1.85 5.3 1.9 6.0 2.35 6.5 2.2 7.4 2.05 7.9 2.1 8.5 2.2 8.75 2.5 10.0 2.2 11.65 2.2 11.75 2.35 M6.65 6.15 L7.05 6.25 8.6 6.2 8.6 6.3 7.3 6.35 3.35 6.15 Q2.55 5.6 1.75 5.6 L1.35 5.7 -0.2 5.7 -0.5 5.65 -1.0 5.55 -1.35 5.65 -1.7 5.75 -2.2 5.65 -2.55 5.45 -2.55 5.35 -2.5 5.35 -1.75 5.65 -1.5 5.55 Q-1.4 5.4 -0.95 5.4 L-0.65 5.45 -0.15 5.6 1.3 5.55 1.75 5.45 Q2.55 5.45 3.4 6.05 L5.5 6.05 5.5 6.1 6.65 6.15" fill="#000000" fill-rule="evenodd" stroke="none"/>
      <path d="M10.8 8.65 L10.7 8.75 -13.65 8.75 -15.95 8.35 Q-17.35 7.95 -17.9 7.45 -19.2 6.35 -19.55 5.55 L-19.5 5.55 -19.6 5.5 -19.6 5.3 -19.45 5.3 Q-18.95 5.3 -17.5 5.85 L-13.4 6.4 -7.6 6.5 -5.35 6.5 -4.65 6.4 -4.5 6.4 -4.45 6.4 -0.85 5.85 -0.85 5.8 -0.7 5.8 -0.05 6.5 0.3 6.8 0.35 6.85 0.75 7.2 0.95 7.3 1.2 7.45 4.3 8.5 10.75 8.5 10.85 8.6 10.8 8.65" fill="#989898" fill-rule="evenodd" stroke="none"/>
    </g>
  </defs>
</svg>
