<?xml version="1.0" encoding="UTF-8" standalone="no"?>
<svg xmlns:ffdec="https://www.free-decompiler.com/flash" xmlns:xlink="http://www.w3.org/1999/xlink" ffdec:objectType="frame" height="17.5px" width="39.25px" xmlns="http://www.w3.org/2000/svg">
  <g transform="matrix(1.0, 0.0, 0.0, 1.0, 19.6, 8.75)">
    <use ffdec:characterId="385" height="17.5" transform="matrix(1.0, 0.0, 0.0, 1.0, -19.6, -8.75)" width="39.25" xlink:href="#shape0"/>
  </g>
  <defs>
    <g id="shape0" transform="matrix(1.0, 0.0, 0.0, 1.0, 19.6, 8.75)">
      <path d="M2.45 -2.25 L2.05 -2.3 Q1.7 -2.35 1.55 -2.5 L1.2 -2.65 1.15 -2.65 1.15 -2.55 1.85 -2.25 4.05 -2.2 5.45 -2.15 6.4 -1.95 7.15 -1.95 7.4 -2.05 13.05 -2.1 14.25 -1.8 14.75 -1.8 14.75 -1.9 14.3 -1.9 13.05 -2.25 7.35 -2.2 6.5 -2.05 5.7 -2.2 5.55 -2.25 4.15 -2.3 3.7 -2.35 2.45 -2.25 M3.85 -4.35 L2.8 -4.4 1.45 -4.35 0.3 -4.7 0.25 -4.7 0.25 -4.6 1.4 -4.25 3.8 -4.25 8.15 -3.6 12.55 -3.6 12.55 -3.7 8.25 -3.7 7.15 -3.75 6.9 -3.8 6.5 -3.85 5.9 -4.0 5.35 -4.05 3.85 -4.35 M1.25 -0.95 L1.2 -0.65 1.2 -0.55 -0.05 1.55 -0.15 1.7 -2.0 3.9 -1.9 4.0 2.4 4.55 4.0 4.75 4.05 4.8 7.9 4.95 8.75 4.85 9.4 4.3 9.55 4.15 10.05 3.45 10.65 2.35 10.7 2.2 10.75 2.05 11.4 0.6 11.45 0.45 11.95 -0.8 11.9 -0.95 11.6 -0.95 10.85 -0.7 5.7 -0.5 5.65 -0.45 4.15 -0.45 3.6 -0.5 2.75 -0.65 2.5 -0.7 1.85 -0.95 1.05 -1.15 1.25 -0.95 M-7.6 6.5 Q-5.95 4.55 -5.15 1.9 L-3.55 -5.1 -3.55 -7.55 -3.45 -7.6 -1.3 -6.8 1.95 -6.05 8.7 -6.0 9.3 -6.05 9.45 -6.15 12.0 -6.2 12.75 -6.25 13.55 -6.5 13.95 -6.55 15.9 -6.75 16.0 -6.85 Q17.7 -7.35 19.45 -8.7 L19.45 -8.75 19.6 -8.75 19.65 -8.1 Q19.65 -6.6 18.85 -3.45 L17.9 0.4 Q17.4 2.65 15.15 5.55 12.8 8.6 11.05 8.6 L10.95 8.6 10.9 8.65 10.8 8.65 10.85 8.6 10.75 8.5 4.3 8.5 1.2 7.45 0.95 7.3 1.3 7.3 1.85 7.15 2.05 7.3 2.6 7.3 2.8 7.2 3.0 7.3 5.3 7.35 6.3 7.6 7.35 7.6 7.4 7.4 7.25 7.4 6.05 7.35 5.55 7.3 5.35 7.25 3.05 7.15 2.75 7.05 2.15 7.2 1.9 7.0 1.4 7.1 0.75 7.2 0.35 6.85 0.3 6.8 -0.05 6.5 -0.7 5.8 -0.85 5.8 -0.85 5.85 -4.45 6.4 -4.5 6.4 -4.55 6.35 -5.05 6.05 -5.1 6.05 -4.65 6.4 -5.35 6.5 -7.6 6.5 M5.5 6.1 L5.5 6.05 3.4 6.05 Q2.55 5.45 1.75 5.45 L1.3 5.55 -0.15 5.6 -0.65 5.45 -0.95 5.4 Q-1.4 5.4 -1.5 5.55 L-1.75 5.65 -2.5 5.35 -2.55 5.35 -2.55 5.45 -2.2 5.65 -1.7 5.75 -1.35 5.65 -1.0 5.55 -0.5 5.65 -0.2 5.7 1.35 5.7 1.75 5.6 Q2.55 5.6 3.35 6.15 L7.3 6.35 8.6 6.3 8.6 6.2 7.05 6.25 6.65 6.15 5.5 6.1" fill="#ffffff" fill-rule="evenodd" stroke="none"/>
      <path d="M3.85 -4.35 L5.35 -4.05 5.9 -4.0 6.5 -3.85 6.9 -3.8 7.15 -3.75 8.25 -3.7 12.55 -3.7 12.55 -3.6 8.15 -3.6 3.8 -4.25 1.4 -4.25 0.25 -4.6 0.25 -4.7 0.3 -4.7 1.45 -4.35 2.8 -4.4 3.85 -4.35 M2.45 -2.25 L3.7 -2.35 4.15 -2.3 5.55 -2.25 5.7 -2.2 6.5 -2.05 7.35 -2.2 13.05 -2.25 14.3 -1.9 14.75 -1.9 14.75 -1.8 14.25 -1.8 13.05 -2.1 7.4 -2.05 7.15 -1.95 6.4 -1.95 5.45 -2.15 4.05 -2.2 1.85 -2.25 1.15 -2.55 1.15 -2.65 1.2 -2.65 1.55 -2.5 Q1.7 -2.35 2.05 -2.3 L2.45 -2.25 M-4.65 6.4 L-5.1 6.05 -5.05 6.05 -4.55 6.35 -4.5 6.4 -4.65 6.4 M0.75 7.2 L1.4 7.1 1.9 7.0 2.15 7.2 2.75 7.05 3.05 7.15 5.35 7.25 5.55 7.3 6.05 7.35 7.25 7.4 7.4 7.4 7.35 7.6 6.3 7.6 5.3 7.35 3.0 7.3 2.8 7.2 2.6 7.3 2.05 7.3 1.85 7.15 1.3 7.3 0.95 7.3 0.75 7.2 M5.5 6.1 L6.65 6.15 7.05 6.25 8.6 6.2 8.6 6.3 7.3 6.35 3.35 6.15 Q2.55 5.6 1.75 5.6 L1.35 5.7 -0.2 5.7 -0.5 5.65 -1.0 5.55 -1.35 5.65 -1.7 5.75 -2.2 5.65 -2.55 5.45 -2.55 5.35 -2.5 5.35 -1.75 5.65 -1.5 5.55 Q-1.4 5.4 -0.95 5.4 L-0.65 5.45 -0.15 5.6 1.3 5.55 1.75 5.45 Q2.55 5.45 3.4 6.05 L5.5 6.05 5.5 6.1" fill="#000000" fill-rule="evenodd" stroke="none"/>
      <path d="M1.25 -0.95 L1.05 -1.15 1.85 -0.95 2.5 -0.7 2.75 -0.65 3.6 -0.5 4.15 -0.45 5.65 -0.45 5.7 -0.5 10.85 -0.7 11.6 -0.95 11.9 -0.95 11.95 -0.8 11.45 0.45 11.4 0.6 10.75 2.05 10.7 2.2 10.65 2.35 10.05 3.45 9.55 4.15 9.4 4.3 8.75 4.85 7.9 4.95 4.05 4.8 4.0 4.75 2.4 4.55 -1.9 4.0 -2.0 3.9 -0.15 1.7 -0.05 1.55 1.2 -0.55 1.2 -0.65 1.25 -0.95 M4.35 4.7 L5.85 4.8 7.8 4.8 Q8.55 4.95 9.25 4.3 L9.35 4.15 9.65 3.75 10.45 2.35 10.5 2.2 10.55 2.1 11.15 0.6 11.2 0.5 11.75 -0.65 11.75 -0.8 11.1 -0.65 10.95 -0.5 7.25 -0.45 5.75 -0.3 4.1 -0.3 4.05 -0.35 3.2 -0.4 2.85 -0.45 2.0 -0.65 1.9 -0.7 1.75 -0.8 1.45 -0.9 1.4 -0.7 1.4 -0.6 0.2 1.5 0.1 1.65 0.0 1.75 -1.7 3.8 -1.7 3.85 2.55 4.35 2.55 4.45 3.9 4.6 3.9 4.7 4.15 4.75 4.35 4.7" fill="#663300" fill-rule="evenodd" stroke="none"/>
      <path d="M3.9 4.6 L2.55 4.45 2.55 4.35 -1.7 3.85 -1.7 3.8 0.0 1.75 0.1 1.65 0.2 1.5 1.4 -0.6 1.4 -0.7 1.45 -0.9 1.75 -0.8 1.9 -0.7 2.0 -0.65 2.85 -0.45 3.2 -0.4 4.05 -0.35 4.1 -0.3 5.75 -0.3 7.25 -0.45 10.95 -0.5 11.1 -0.65 11.75 -0.8 11.75 -0.65 11.2 0.5 11.15 0.6 10.55 2.1 10.5 2.2 10.45 2.35 9.65 3.75 9.35 4.15 9.25 4.3 Q8.55 4.95 7.8 4.8 L5.85 4.8 4.35 4.7 4.5 4.6 4.65 4.4 5.05 3.7 5.2 3.45 5.15 3.45 5.6 2.2 6.35 0.45 6.3 0.3 6.25 0.2 6.15 0.2 6.15 0.3 6.1 0.3 5.35 1.9 5.3 2.05 5.0 3.1 Q4.75 3.25 4.7 3.75 L4.4 4.15 4.3 4.3 4.25 4.4 4.15 4.5 4.05 4.55 4.5 3.55 4.6 3.45 4.6 1.55 4.65 1.0 Q4.65 0.4 4.3 0.2 L4.2 0.2 4.2 0.45 Q4.4 0.55 4.4 1.0 L4.35 1.4 4.35 3.35 4.0 4.15 3.9 4.4 3.9 4.6 M7.6 0.1 L7.6 0.2 7.6 0.3 7.45 0.7 7.25 1.3 6.9 2.1 6.8 2.3 6.6 2.65 6.1 3.85 6.0 4.05 6.05 4.2 6.1 4.2 6.15 4.35 6.3 4.25 7.25 2.2 7.35 2.05 7.5 1.55 7.5 1.5 7.55 1.2 7.6 1.0 7.65 0.9 7.85 0.35 7.85 0.3 7.85 0.25 7.9 0.05 7.75 0.05 7.75 0.15 7.7 0.1 7.6 0.1 M8.95 0.05 L8.9 0.4 8.85 0.55 8.35 1.6 8.1 2.05 8.0 2.3 Q7.7 2.85 7.7 3.2 L7.75 3.3 7.85 3.3 8.25 2.35 8.35 2.1 8.55 1.65 9.05 0.6 9.1 0.45 9.1 0.35 9.05 0.05 8.95 0.05 M9.8 0.5 L9.8 0.45 9.7 0.5 9.65 0.5 9.7 0.6 8.95 2.0 8.7 2.45 8.6 2.55 8.0 3.75 8.05 3.9 8.15 3.9 8.9 2.6 8.95 2.5 9.85 0.65 9.85 0.6 9.8 0.5 M0.25 3.0 L0.4 2.8 0.25 3.05 0.25 3.0 M1.65 0.65 L1.6 0.6 Q1.35 0.8 1.0 1.65 L1.0 1.7 0.95 1.85 0.4 2.7 0.4 2.65 0.75 1.85 0.8 1.7 1.2 0.55 1.15 0.25 -1.0 3.4 -0.95 3.45 0.3 1.8 0.4 1.7 1.05 0.55 1.05 0.6 0.7 1.7 0.65 1.85 -0.15 3.65 -0.2 3.75 -0.3 3.9 -0.1 3.75 0.0 3.65 0.85 2.35 1.1 1.85 1.15 1.7 1.65 0.65 M3.45 0.2 L3.4 0.1 0.95 2.8 1.05 2.85 2.05 1.85 2.1 1.75 2.25 1.6 3.0 0.85 3.45 0.2 M3.95 0.6 L3.9 0.45 2.0 3.5 2.2 3.5 3.15 2.0 3.25 1.85 3.95 0.6" fill="#993300" fill-rule="evenodd" stroke="none"/>
      <path d="M10.8 8.65 L10.7 8.75 -13.65 8.75 -15.95 8.35 Q-17.35 7.95 -17.9 7.45 -19.2 6.35 -19.55 5.55 L-19.5 5.55 -19.6 5.5 -19.6 5.3 -19.45 5.3 Q-18.95 5.3 -17.5 5.85 L-13.4 6.4 -7.6 6.5 -5.35 6.5 -4.65 6.4 -4.5 6.4 -4.45 6.4 -0.85 5.85 -0.85 5.8 -0.7 5.8 -0.05 6.5 0.3 6.8 0.35 6.85 0.75 7.2 0.95 7.3 1.2 7.45 4.3 8.5 10.75 8.5 10.85 8.6 10.8 8.65" fill="#cccccc" fill-rule="evenodd" stroke="none"/>
      <path d="M3.9 4.6 L3.9 4.4 4.0 4.15 4.35 3.35 4.35 1.4 4.4 1.0 Q4.4 0.55 4.2 0.45 L4.2 0.2 4.3 0.2 Q4.65 0.4 4.65 1.0 L4.6 1.55 4.6 3.45 4.5 3.55 4.05 4.55 4.15 4.5 4.25 4.4 4.3 4.3 4.4 4.15 4.7 3.75 Q4.75 3.25 5.0 3.1 L5.3 2.05 5.35 1.9 6.1 0.3 6.15 0.3 6.15 0.2 6.25 0.2 6.3 0.3 6.35 0.45 5.6 2.2 5.15 3.45 5.2 3.45 5.05 3.7 4.65 4.4 4.5 4.6 4.35 4.7 4.15 4.75 3.9 4.7 3.9 4.6 M9.8 0.5 L9.85 0.6 9.85 0.65 8.95 2.5 8.9 2.6 8.15 3.9 8.05 3.9 8.0 3.75 8.6 2.55 8.7 2.45 8.95 2.0 9.7 0.6 9.65 0.5 9.7 0.5 9.8 0.45 9.8 0.5 M8.95 0.05 L9.05 0.05 9.1 0.35 9.1 0.45 9.05 0.6 8.55 1.65 8.35 2.1 8.25 2.35 7.85 3.3 7.75 3.3 7.7 3.2 Q7.7 2.85 8.0 2.3 L8.1 2.05 8.35 1.6 8.85 0.55 8.9 0.4 8.95 0.05 M7.6 0.1 L7.7 0.1 7.75 0.15 7.75 0.05 7.9 0.05 7.85 0.25 7.85 0.3 7.85 0.35 7.65 0.9 7.6 1.0 7.55 1.2 7.5 1.5 7.5 1.55 7.35 2.05 7.25 2.2 6.3 4.25 6.15 4.35 6.1 4.2 6.05 4.2 6.0 4.05 6.1 3.85 6.6 2.65 6.8 2.3 6.9 2.1 7.25 1.3 7.45 0.7 7.6 0.3 7.6 0.2 7.6 0.1 M3.95 0.6 L3.25 1.85 3.15 2.0 2.2 3.5 2.0 3.5 3.9 0.45 3.95 0.6 M3.45 0.2 L3.0 0.85 2.25 1.6 2.1 1.75 2.05 1.85 1.05 2.85 0.95 2.8 3.4 0.1 3.45 0.2 M1.65 0.65 L1.15 1.7 1.1 1.85 0.85 2.35 0.0 3.65 -0.1 3.75 -0.3 3.9 -0.2 3.75 -0.15 3.65 0.65 1.85 0.7 1.7 1.05 0.6 1.05 0.55 0.4 1.7 0.3 1.8 -0.95 3.45 -1.0 3.4 1.15 0.25 1.2 0.55 0.8 1.7 0.75 1.85 0.4 2.65 0.4 2.7 0.95 1.85 1.0 1.7 1.0 1.65 Q1.35 0.8 1.6 0.6 L1.65 0.65 M0.25 3.0 L0.25 3.05 0.4 2.8 0.25 3.0" fill="#666666" fill-rule="evenodd" stroke="none"/>
      <path d="M9.55 0.85 L8.25 0.7 8.2 0.75 8.2 0.85 8.15 0.85 8.15 0.75 8.2 0.7 8.0 0.7 8.0 0.65 7.75 0.65 7.75 0.6 6.85 0.5 6.8 0.55 6.75 0.5 6.7 0.55 6.6 1.25 6.6 1.45 6.75 1.5 6.95 1.5 6.95 1.55 6.85 1.55 6.75 1.55 6.6 1.5 6.5 1.7 6.45 1.7 6.5 1.6 6.55 1.5 6.4 1.45 6.2 1.45 6.2 1.4 6.4 1.4 6.55 1.45 6.55 1.3 6.5 1.3 6.55 0.9 6.6 0.9 6.7 0.5 6.35 0.5 6.15 0.5 5.8 0.45 5.65 0.4 5.55 0.4 5.35 0.35 5.25 0.35 5.05 0.3 5.0 0.3 4.95 0.35 4.95 0.5 4.9 0.75 4.85 1.25 5.15 1.3 5.15 1.35 4.85 1.3 4.75 1.85 4.7 2.1 4.7 2.3 4.75 2.35 4.85 2.45 6.3 2.6 6.3 2.55 6.35 2.55 6.35 2.4 6.35 2.3 6.45 2.3 6.4 2.4 6.4 2.55 6.35 2.6 7.15 2.7 7.2 2.7 7.55 2.75 7.65 2.8 7.75 2.8 7.9 2.85 8.05 1.9 8.1 1.75 7.9 1.75 7.75 1.65 7.9 1.7 8.05 1.7 8.05 1.5 8.1 1.5 8.15 1.7 8.4 1.75 8.4 1.8 8.35 1.8 8.15 1.75 8.1 1.85 7.95 2.8 7.95 2.85 8.0 2.85 8.2 2.9 8.45 2.9 8.65 2.95 9.15 2.95 9.3 2.95 9.35 2.9 9.45 2.0 9.45 1.9 9.2 1.9 9.25 1.85 9.45 1.85 9.5 1.45 9.5 1.4 9.55 1.0 9.55 0.9 9.6 0.85 9.55 0.85 M9.65 0.8 L9.65 0.85 9.65 0.95 9.65 1.1 9.6 1.1 9.5 1.85 9.5 1.95 9.5 2.05 9.4 2.9 9.4 2.95 9.35 2.95 9.35 3.05 9.3 3.05 9.2 3.0 8.7 3.0 8.4 2.95 8.3 2.95 7.75 2.9 7.65 2.9 7.55 2.8 7.2 2.75 7.15 2.75 4.85 2.5 4.8 2.5 4.65 2.4 4.65 2.35 4.7 1.85 4.75 1.55 4.8 1.3 4.8 1.1 4.85 0.8 4.9 0.5 4.9 0.35 4.95 0.3 4.95 0.25 5.0 0.25 5.05 0.2 5.15 0.3 5.4 0.3 5.6 0.35 5.7 0.35 5.85 0.35 6.2 0.4 6.35 0.4 6.45 0.45 6.7 0.45 6.85 0.45 7.75 0.55 7.8 0.55 8.0 0.6 8.0 0.65 8.25 0.65 9.55 0.8 9.65 0.8" fill="#ffffff" fill-opacity="0.7176471" fill-rule="evenodd" stroke="none"/>
      <path d="M9.55 0.85 L9.6 0.85 9.55 0.9 9.55 1.0 9.5 1.4 9.5 1.45 9.45 1.85 9.25 1.85 9.2 1.9 9.45 1.9 9.45 2.0 9.35 2.9 9.3 2.95 9.15 2.95 8.65 2.95 8.45 2.9 8.2 2.9 8.0 2.85 7.95 2.85 7.95 2.8 8.1 1.85 8.15 1.75 8.35 1.8 8.4 1.8 8.4 1.75 8.15 1.7 8.1 1.5 8.05 1.5 8.05 1.7 7.9 1.7 7.75 1.65 7.9 1.75 8.1 1.75 8.05 1.9 7.9 2.85 7.75 2.8 7.65 2.8 7.55 2.75 7.2 2.7 7.15 2.7 6.35 2.6 6.4 2.55 6.4 2.4 6.45 2.3 6.35 2.3 6.35 2.4 6.35 2.55 6.3 2.55 6.3 2.6 4.85 2.45 4.75 2.35 4.7 2.3 4.7 2.1 4.75 1.85 4.85 1.3 5.15 1.35 5.15 1.3 4.85 1.25 4.9 0.75 4.95 0.5 4.95 0.35 5.0 0.3 5.05 0.3 5.25 0.35 5.35 0.35 5.55 0.4 5.65 0.4 5.8 0.45 6.15 0.5 6.35 0.5 6.7 0.5 6.6 0.9 6.55 0.9 6.5 1.3 6.55 1.3 6.55 1.45 6.4 1.4 6.2 1.4 6.2 1.45 6.4 1.45 6.55 1.5 6.5 1.6 6.45 1.7 6.5 1.7 6.6 1.5 6.75 1.55 6.85 1.55 6.95 1.55 6.95 1.5 6.75 1.5 6.6 1.45 6.6 1.25 6.7 0.55 6.75 0.5 6.8 0.55 6.85 0.5 7.75 0.6 7.75 0.65 8.0 0.65 8.0 0.7 8.2 0.7 8.15 0.75 8.15 0.85 8.2 0.85 8.2 0.75 8.25 0.7 9.55 0.85" fill="#000000" fill-opacity="0.7176471" fill-rule="evenodd" stroke="none"/>
      <path d="M3.65 2.1 L3.5 2.1 3.4 2.25 3.45 2.3 3.6 2.45 3.75 2.4 3.75 2.3 3.75 2.15 3.65 2.1 M3.4 1.75 L3.95 1.8 4.2 1.85 4.25 2.1 4.15 2.4 4.2 2.6 4.05 3.35 4.05 3.75 4.0 4.0 4.0 4.2 3.85 4.3 3.7 4.3 3.55 4.2 3.05 4.15 2.65 4.1 2.4 4.05 2.35 4.05 1.8 4.0 1.45 4.0 1.1 4.0 0.8 4.0 0.7 3.85 0.65 3.75 0.75 3.0 0.8 2.2 0.8 1.6 0.85 1.55 1.05 1.5 1.35 1.55 1.6 1.55 3.35 1.75 3.4 1.75" fill="#000000" fill-opacity="0.8" fill-rule="evenodd" stroke="none"/>
      <path d="M3.65 2.1 L3.75 2.15 3.75 2.3 3.75 2.4 3.6 2.45 3.45 2.3 3.4 2.25 3.5 2.1 3.65 2.1" fill="#ffffff" fill-opacity="0.8" fill-rule="evenodd" stroke="none"/>
    </g>
  </defs>
</svg>
