<?xml version="1.0" encoding="UTF-8" standalone="no"?>
<svg xmlns:ffdec="https://www.free-decompiler.com/flash" xmlns:xlink="http://www.w3.org/1999/xlink" ffdec:objectType="frame" height="17.5px" width="39.25px" xmlns="http://www.w3.org/2000/svg">
  <g transform="matrix(1.0, 0.0, 0.0, 1.0, 19.6, 8.75)">
    <use ffdec:characterId="173" height="17.5" transform="matrix(1.0, 0.0, 0.0, 1.0, -19.6, -8.75)" width="39.25" xlink:href="#shape0"/>
  </g>
  <defs>
    <g id="shape0" transform="matrix(1.0, 0.0, 0.0, 1.0, 19.6, 8.75)">
      <path d="M0.65 -0.65 L0.65 -0.5 1.0 -0.5 2.35 -0.75 Q3.1 -0.25 3.75 -0.2 L6.95 0.15 9.1 0.6 11.75 0.6 Q11.75 0.55 12.1 0.45 L13.2 0.4 14.1 -0.3 13.6 -0.1 13.15 0.25 11.7 0.45 9.2 0.5 8.15 0.3 7.7 0.25 6.25 -0.05 5.75 -0.1 5.25 -0.15 4.85 -0.25 3.8 -0.3 Q2.9 -0.4 2.45 -0.85 L1.5 -0.75 0.65 -0.65 M-7.6 6.5 Q-5.95 4.55 -5.15 1.9 L-3.55 -5.1 -3.55 -7.55 -3.45 -7.6 -1.3 -6.8 1.95 -6.05 8.7 -6.0 9.3 -6.05 9.45 -6.15 12.0 -6.2 12.75 -6.25 13.55 -6.5 13.95 -6.55 15.9 -6.75 16.0 -6.85 Q17.7 -7.35 19.45 -8.7 L19.45 -8.75 19.6 -8.75 19.65 -8.1 Q19.65 -6.6 18.85 -3.45 L17.9 0.4 Q17.4 2.65 15.15 5.55 12.8 8.6 11.05 8.6 L10.95 8.6 10.9 8.65 10.8 8.65 10.85 8.6 10.75 8.5 4.3 8.5 1.2 7.45 0.95 7.3 0.75 7.2 0.35 6.85 0.3 6.8 -0.05 6.5 -0.7 5.8 -0.85 5.8 -0.85 5.85 -4.45 6.4 -4.65 6.4 -5.35 6.5 -7.6 6.5 M10.9 4.2 L10.9 4.1 8.5 4.15 5.25 4.6 3.9 4.1 2.8 3.65 2.15 3.6 -0.25 3.65 -0.7 3.55 -1.25 3.5 -1.3 3.5 -1.3 3.6 -0.35 3.75 2.7 3.75 3.65 4.25 5.6 4.7 8.5 4.3 10.55 4.25 10.9 4.2" fill="#ffffff" fill-rule="evenodd" stroke="none"/>
      <path d="M0.65 -0.65 L1.5 -0.75 2.45 -0.85 Q2.9 -0.4 3.8 -0.3 L4.85 -0.25 5.25 -0.15 5.75 -0.1 6.25 -0.05 7.7 0.25 8.15 0.3 9.2 0.5 11.7 0.45 13.15 0.25 13.6 -0.1 14.1 -0.3 13.2 0.4 12.1 0.45 Q11.75 0.55 11.75 0.6 L9.1 0.6 6.95 0.15 3.75 -0.2 Q3.1 -0.25 2.35 -0.75 L1.0 -0.5 0.65 -0.5 0.65 -0.65 M10.9 4.2 L10.55 4.25 8.5 4.3 5.6 4.7 3.65 4.25 2.7 3.75 -0.35 3.75 -1.3 3.6 -1.3 3.5 -1.25 3.5 -0.7 3.55 -0.25 3.65 2.15 3.6 2.8 3.65 3.9 4.1 5.25 4.6 8.5 4.15 10.9 4.1 10.9 4.2" fill="#000000" fill-rule="evenodd" stroke="none"/>
      <path d="M10.8 8.65 L10.7 8.75 -13.65 8.75 -15.95 8.35 Q-17.35 7.95 -17.9 7.45 -19.2 6.35 -19.55 5.55 L-19.5 5.55 -19.6 5.5 -19.6 5.3 -19.45 5.3 Q-18.95 5.3 -17.5 5.85 L-13.4 6.4 -7.6 6.5 -5.35 6.5 -4.65 6.4 -4.45 6.4 -0.85 5.85 -0.85 5.8 -0.7 5.8 -0.05 6.5 0.3 6.8 0.35 6.85 0.75 7.2 0.95 7.3 1.2 7.45 4.3 8.5 10.75 8.5 10.85 8.6 10.8 8.65" fill="#cccccc" fill-rule="evenodd" stroke="none"/>
    </g>
  </defs>
</svg>
